G04*
G04 #@! TF.GenerationSoftware,Altium Limited,Altium Designer,24.6.1 (21)*
G04*
G04 Layer_Color=16711935*
%FSLAX25Y25*%
%MOIN*%
G70*
G04*
G04 #@! TF.SameCoordinates,070BA572-D09E-44C5-9521-77B36399D436*
G04*
G04*
G04 #@! TF.FilePolarity,Positive*
G04*
G01*
G75*
%ADD16C,0.00300*%
%ADD45C,0.00394*%
%ADD46C,0.00000*%
%ADD47C,0.00100*%
D16*
X500200Y430120D02*
X497576Y432744D01*
X500200D02*
X497576Y430120D01*
X500200Y431432D02*
X497576D01*
X498888Y432744D02*
Y430120D01*
X474800Y406880D02*
X477424Y404256D01*
X474800D02*
X477424Y406880D01*
X474800Y405568D02*
X477424D01*
X476112Y404256D02*
Y406880D01*
X538900Y399670D02*
X536276Y402294D01*
X538900D02*
X536276Y399670D01*
X538900Y400982D02*
X536276D01*
X537588Y402294D02*
Y399670D01*
D45*
X600599Y376579D02*
G03*
X599328Y387464I-5099J4921D01*
G01*
X596887D02*
G03*
X594113Y387464I-1387J-1397D01*
G01*
X596750Y381500D02*
G03*
X594250Y381500I-1250J0D01*
G01*
D02*
G03*
X596750Y381500I1250J0D01*
G01*
X591672Y387464D02*
G03*
X590401Y376579I3828J-5964D01*
G01*
X567374Y371211D02*
G03*
X556489Y369940I-4921J-5099D01*
G01*
Y367499D02*
G03*
X556489Y364725I1397J-1387D01*
G01*
X562453Y367362D02*
G03*
X562453Y364862I0J-1250D01*
G01*
D02*
G03*
X562453Y367362I0J1250D01*
G01*
X556489Y362284D02*
G03*
X567374Y361013I5964J3828D01*
G01*
X619599Y375370D02*
G03*
X618328Y386255I-5099J4921D01*
G01*
X615887D02*
G03*
X613113Y386255I-1387J-1397D01*
G01*
X615750Y380291D02*
G03*
X613250Y380291I-1250J0D01*
G01*
D02*
G03*
X615750Y380291I1250J0D01*
G01*
X610672Y386255D02*
G03*
X609401Y375370I3828J-5964D01*
G01*
X516901Y436630D02*
G03*
X518172Y425745I5099J-4921D01*
G01*
X520613D02*
G03*
X523387Y425745I1387J1397D01*
G01*
X520750Y431709D02*
G03*
X523250Y431709I1250J0D01*
G01*
D02*
G03*
X520750Y431709I-1250J0D01*
G01*
X525828Y425745D02*
G03*
X527099Y436630I-3828J5964D01*
G01*
X540299Y357701D02*
G03*
X540299Y357701I-1969J0D01*
G01*
X589595Y388587D02*
X592547D01*
X598453D02*
X601405D01*
X602587Y387405D01*
X598374Y387464D02*
Y389177D01*
X591976Y375201D02*
Y376579D01*
Y375201D02*
X599024D01*
X596887Y387464D02*
X599328D01*
X593847Y388587D02*
X597154D01*
X602587Y373626D02*
Y387405D01*
X597173Y389177D02*
X598374Y389177D01*
X592626Y387464D02*
Y389177D01*
X597173Y388587D02*
Y389177D01*
X588413Y387405D02*
X589595Y388587D01*
X599024Y376579D02*
X600599D01*
X599024Y375201D02*
Y376579D01*
X592626Y389177D02*
X593827D01*
Y388587D02*
Y389177D01*
X590401Y376579D02*
X591976D01*
X591672Y387464D02*
X594113D01*
X588413Y373626D02*
X602587D01*
X588413D02*
Y387405D01*
X555366Y360206D02*
Y363159D01*
Y369065D02*
Y372018D01*
X556547Y373199D01*
X554776Y368986D02*
X556489D01*
X567374Y362588D02*
X568752D01*
Y369636D01*
X556489Y367499D02*
Y369940D01*
X555366Y364458D02*
Y367765D01*
X556547Y373199D02*
X570327D01*
X554776Y367785D02*
X554776Y368986D01*
Y363238D02*
X556489D01*
X554776Y367785D02*
X555366D01*
X555366Y360206D02*
X556547Y359025D01*
X567374Y369636D02*
Y371211D01*
Y369636D02*
X568752D01*
X554776Y363238D02*
Y364439D01*
X555366D01*
X567374Y361013D02*
Y362588D01*
X556489Y362284D02*
Y364725D01*
X570327Y359025D02*
Y373199D01*
X556547Y359025D02*
X570327D01*
X608595Y387378D02*
X611547D01*
X617453D02*
X620405D01*
X621587Y386197D01*
X617374Y386255D02*
Y387968D01*
X610976Y373992D02*
Y375370D01*
Y373992D02*
X618024D01*
X615887Y386255D02*
X618328D01*
X612847Y387378D02*
X616154D01*
X621587Y372417D02*
Y386197D01*
X616173Y387968D02*
X617374Y387968D01*
X611626Y386255D02*
Y387968D01*
X616173Y387378D02*
Y387968D01*
X607413Y386197D02*
X608595Y387378D01*
X618024Y375370D02*
X619599D01*
X618024Y373992D02*
Y375370D01*
X611626Y387968D02*
X612827D01*
Y387378D02*
Y387968D01*
X609401Y375370D02*
X610976D01*
X610672Y386255D02*
X613113D01*
X607413Y372417D02*
X621587D01*
X607413D02*
Y386197D01*
X524953Y424622D02*
X527906D01*
X516094D02*
X519047D01*
X514913Y425803D02*
X516094Y424622D01*
X519126Y424031D02*
Y425745D01*
X525524Y436630D02*
Y438008D01*
X518476D02*
X525524D01*
X518172Y425745D02*
X520613D01*
X520346Y424622D02*
X523654D01*
X514913Y425803D02*
Y439583D01*
X519126Y424031D02*
X520327D01*
X524874D02*
Y425745D01*
X520327Y424031D02*
Y424622D01*
X527906Y424622D02*
X529087Y425803D01*
X516901Y436630D02*
X518476D01*
Y438008D01*
X523673Y424031D02*
X524874D01*
X523673D02*
Y424622D01*
X525524Y436630D02*
X527099D01*
X523387Y425745D02*
X525828D01*
X514913Y439583D02*
X529087D01*
X529087Y425803D02*
Y439583D01*
X642228Y373847D02*
X645772D01*
X642228Y367154D02*
X645772D01*
Y373847D01*
X642228Y367154D02*
Y373847D01*
X642425Y354850D02*
Y361150D01*
Y354850D02*
X645575D01*
X642425Y361150D02*
X645575D01*
Y354850D02*
Y361150D01*
X457154Y397728D02*
X463846D01*
X457154Y401272D02*
X463846D01*
Y397728D02*
Y401272D01*
X457154Y397728D02*
Y401272D01*
X670280Y381255D02*
Y410745D01*
X651794Y381255D02*
X670280D01*
X651776Y381236D02*
Y410745D01*
X670280D01*
X634299Y382728D02*
Y386272D01*
X640992Y382728D02*
Y386272D01*
X634299Y382728D02*
X640992Y382728D01*
X634299Y386272D02*
X640992Y386272D01*
X634299Y374332D02*
X634299Y377876D01*
X640992Y374332D02*
Y377876D01*
X634299Y374332D02*
X640992D01*
X634299Y377876D02*
X640992Y377876D01*
X634388Y407601D02*
Y411144D01*
X641081Y407601D02*
Y411144D01*
X634388Y407601D02*
X641081Y407601D01*
X634388Y411144D02*
X641081Y411144D01*
X634338Y390986D02*
Y394529D01*
X641031Y390986D02*
Y394529D01*
X634338Y390986D02*
X641031D01*
X634338Y394529D02*
X641031D01*
X634388Y399244D02*
Y402788D01*
X641081Y399244D02*
Y402788D01*
X634388Y399244D02*
X641081D01*
X634388Y402788D02*
X641081D01*
X537492Y364728D02*
Y368272D01*
X530799Y364728D02*
Y368272D01*
X537492D01*
X530799Y364728D02*
X537492D01*
X591153Y363228D02*
X597847D01*
X591153Y366772D02*
X597847D01*
Y363228D02*
Y366772D01*
X591153Y363228D02*
Y366772D01*
X510228Y351153D02*
Y357846D01*
X513772Y351153D02*
Y357846D01*
X510228Y351153D02*
X513772D01*
X510228Y357846D02*
X513772D01*
Y365154D02*
Y371847D01*
X510228Y365154D02*
Y371847D01*
X513772D01*
X510228Y365154D02*
X513772D01*
X568654Y414772D02*
X575347D01*
X568653Y411228D02*
X575347D01*
X568653D02*
X568654Y414772D01*
X575347Y411228D02*
Y414772D01*
X591153Y426772D02*
X597847D01*
X591153Y423228D02*
X597847D01*
X591153D02*
Y426772D01*
X597847Y423228D02*
Y426772D01*
X623228Y408653D02*
Y415346D01*
X626772Y408653D02*
Y415346D01*
X623228Y408653D02*
X626772D01*
X623228Y415346D02*
X626772D01*
X568606Y422772D02*
X575299D01*
X568606Y419228D02*
X575299D01*
X568606D02*
Y422772D01*
X575299Y419228D02*
Y422772D01*
X599346Y398228D02*
Y401772D01*
X592654Y398228D02*
Y401772D01*
X599346D01*
X592654Y398228D02*
X599346D01*
X534299Y400272D02*
X540992D01*
X534299Y396728D02*
X540992D01*
Y400272D01*
X534299Y396728D02*
Y400272D01*
X471728Y423799D02*
X471728Y430492D01*
X475272D02*
X475272Y423799D01*
X471728D02*
X475272D01*
X471728Y430492D02*
X475272D01*
X484772Y423701D02*
Y430394D01*
X481228Y423701D02*
Y430394D01*
X484772D01*
X481228Y423701D02*
X484772D01*
X484772Y437701D02*
Y444394D01*
X481228Y437701D02*
Y444394D01*
X484772D01*
X481228Y437701D02*
X484772D01*
X509228Y431154D02*
Y437847D01*
X512772D02*
X512772Y431154D01*
X509228Y437847D02*
X512772D01*
X509228Y431154D02*
X512772D01*
X474154Y413228D02*
Y416772D01*
X480847Y413228D02*
Y416772D01*
X474154Y413228D02*
X480847D01*
X474154Y416772D02*
X480847D01*
X458228Y400846D02*
X461772D01*
X458228Y394153D02*
X461772D01*
X458228D02*
Y400846D01*
X461772Y394153D02*
Y400846D01*
X426154Y392728D02*
X432846D01*
X426154Y396272D02*
X432846D01*
Y392728D02*
Y396272D01*
X426154Y392728D02*
Y396272D01*
X634752Y421500D02*
X656248Y421500D01*
Y431500D01*
X634752Y431500D02*
X656248Y431500D01*
X634752Y421500D02*
Y431500D01*
X443850Y400937D02*
X450150D01*
X443850Y393063D02*
X450150D01*
X443850D02*
Y400937D01*
X450150Y393063D02*
Y400937D01*
X415228Y388154D02*
X418772D01*
X415228Y394847D02*
X418772D01*
X415228Y388154D02*
Y394847D01*
X418772Y388154D02*
Y394847D01*
X506728Y393154D02*
X510272D01*
X506728Y399847D02*
X510272D01*
X506728Y393154D02*
Y399847D01*
X510272Y393154D02*
Y399847D01*
X523846Y397728D02*
Y401272D01*
X517154Y397728D02*
Y401272D01*
Y397728D02*
X523846D01*
X517154Y401272D02*
X523846D01*
X554846Y402728D02*
Y406272D01*
X548154Y402728D02*
Y406272D01*
Y402728D02*
X554846Y402728D01*
X548154Y406272D02*
X554846Y406272D01*
X498846Y369728D02*
Y373272D01*
X492154Y369728D02*
Y373272D01*
Y369728D02*
X498846D01*
X492154Y373272D02*
X498846D01*
X526126Y373843D02*
X541874D01*
X526126Y354157D02*
X541874D01*
X526126D02*
Y373843D01*
X541874Y354157D02*
Y373843D01*
X567728Y392347D02*
X571272D01*
X567728Y385653D02*
X571272D01*
Y392347D01*
X567728Y385653D02*
Y392347D01*
D46*
X498200Y428100D02*
G03*
X495800Y428100I-1200J0D01*
G01*
X476800Y408900D02*
G03*
X479200Y408900I1200J0D01*
G01*
X537700Y397650D02*
G03*
X535300Y397650I-1200J0D01*
G01*
D47*
X500450Y428100D02*
Y439900D01*
X493550Y428100D02*
X500450D01*
X493550D02*
Y439900D01*
X500450D01*
X491100Y429260D02*
X493550D01*
X491100Y431260D02*
X491100Y429260D01*
X491100Y431260D02*
X493550Y431260D01*
Y429260D02*
Y431260D01*
X491100Y433000D02*
X493550Y433000D01*
X491100Y433000D02*
X491100Y435000D01*
X493550D01*
Y433000D02*
Y435000D01*
X491100Y436740D02*
X493550D01*
X491100D02*
Y438740D01*
X493550D01*
Y436740D02*
Y438740D01*
X500450D02*
X502900D01*
Y436740D02*
Y438740D01*
X500450Y436740D02*
X502900D01*
X500450D02*
Y438740D01*
Y435000D02*
X502900D01*
X502900Y433000D02*
X502900Y435000D01*
X500450Y433000D02*
X502900Y433000D01*
X500450Y433000D02*
Y435000D01*
Y431260D02*
X502900D01*
X502900Y429260D01*
X500450Y429260D02*
X502900Y429260D01*
X500450Y429260D02*
Y431260D01*
X474550Y405740D02*
Y407740D01*
X472100D02*
X474550D01*
X472100Y405740D02*
Y407740D01*
Y405740D02*
X474550D01*
Y402000D02*
Y404000D01*
X472100D02*
X474550D01*
X472100Y402000D02*
Y404000D01*
Y402000D02*
X474550D01*
Y398260D02*
Y400260D01*
X472100D02*
X474550D01*
X472100Y398260D02*
Y400260D01*
Y398260D02*
X474550D01*
X481450D02*
Y400260D01*
Y398260D02*
X483900D01*
Y400260D01*
X481450D02*
X483900D01*
X481450Y402000D02*
Y404000D01*
Y402000D02*
X483900D01*
Y404000D01*
X481450D02*
X483900D01*
X481450Y405740D02*
Y407740D01*
Y405740D02*
X483900D01*
Y407740D01*
X481450D02*
X483900D01*
X474550Y397100D02*
X481450D01*
Y408900D01*
X474550D02*
X481450D01*
X474550Y397100D02*
Y408900D01*
X539150Y398841D02*
Y400041D01*
Y398841D02*
X540850D01*
X540850Y400041D01*
X539150D02*
X540850D01*
X539150Y401400D02*
Y402600D01*
Y401400D02*
X540850D01*
Y402600D01*
X539150D02*
X540850D01*
X539150Y403959D02*
Y405159D01*
Y403959D02*
X540850D01*
X540850Y405159D02*
X540850Y403959D01*
X539150Y405159D02*
X540850D01*
X533850Y403959D02*
Y405159D01*
X532150D02*
X533850D01*
X532150Y403959D02*
X532150Y405159D01*
X532150Y403959D02*
X533850D01*
Y401400D02*
Y402600D01*
X532150D02*
X533850D01*
X532150Y401400D02*
Y402600D01*
Y401400D02*
X533850D01*
Y398841D02*
Y400041D01*
X532150D02*
X533850D01*
X532150D02*
X532150Y398841D01*
X533850D01*
Y406350D02*
X539150D01*
X533850Y397650D02*
Y406350D01*
Y397650D02*
X539150D01*
Y406350D01*
M02*
