G04*
G04 #@! TF.GenerationSoftware,Altium Limited,Altium Designer,24.6.1 (21)*
G04*
G04 Layer_Color=128*
%FSLAX25Y25*%
%MOIN*%
G70*
G04*
G04 #@! TF.SameCoordinates,070BA572-D09E-44C5-9521-77B36399D436*
G04*
G04*
G04 #@! TF.FilePolarity,Positive*
G04*
G01*
G75*
%ADD49C,0.00500*%
D49*
X649512Y405842D02*
X652858D01*
X651185Y404169D02*
Y407516D01*
X649512Y386157D02*
X652858D01*
X651185Y384484D02*
Y387831D01*
X660634Y409780D02*
X662996D01*
X661815Y408598D02*
Y410961D01*
X660634Y382221D02*
X662996D01*
X661815Y381039D02*
Y383402D01*
X638492Y426500D02*
X642508D01*
X640500Y424492D02*
Y428508D01*
X648492Y426500D02*
X652508D01*
X650500Y424492D02*
Y428508D01*
X568016Y396000D02*
X569984D01*
X569000Y395016D02*
Y396984D01*
X521016Y433000D02*
X522984D01*
X522000Y432016D02*
Y433984D01*
X644269Y377953D02*
X647069D01*
X645669Y376553D02*
Y379353D01*
X534516Y352500D02*
X536484D01*
X535500Y351516D02*
Y353484D01*
X542272Y393701D02*
X545072D01*
X543672Y392301D02*
Y395101D01*
X660017Y440945D02*
X662817D01*
X661417Y439545D02*
Y442345D01*
X667891Y425197D02*
X670691D01*
X669291Y423797D02*
Y426597D01*
X667891Y393701D02*
X670691D01*
X669291Y392301D02*
Y395101D01*
X667891Y362205D02*
X670691D01*
X669291Y360805D02*
Y363605D01*
X660017Y346457D02*
X662817D01*
X661417Y345057D02*
Y347857D01*
X644269Y440945D02*
X647069D01*
X645669Y439545D02*
Y442345D01*
X644269Y346457D02*
X647069D01*
X645669Y345057D02*
Y347857D01*
X628521Y440945D02*
X631321D01*
X629921Y439545D02*
Y442345D01*
X628521Y409449D02*
X631321D01*
X629921Y408049D02*
Y410849D01*
X636395Y362205D02*
X639195D01*
X637795Y360805D02*
Y363605D01*
X628521Y346457D02*
X631321D01*
X629921Y345057D02*
Y347857D01*
X612773Y440945D02*
X615573D01*
X614173Y439545D02*
Y442345D01*
X620647Y362205D02*
X623447D01*
X622047Y360805D02*
Y363605D01*
X612773Y346457D02*
X615573D01*
X614173Y345057D02*
Y347857D01*
X597025Y440945D02*
X599825D01*
X598425Y439545D02*
Y442345D01*
X604899Y393701D02*
X607699D01*
X606299Y392301D02*
Y395101D01*
X604899Y362205D02*
X607699D01*
X606299Y360805D02*
Y363605D01*
X581277Y440945D02*
X584077D01*
X582677Y439545D02*
Y442345D01*
X581277Y409449D02*
X584077D01*
X582677Y408049D02*
Y410849D01*
X565529Y440945D02*
X568329D01*
X566929Y439545D02*
Y442345D01*
X573403Y425197D02*
X576203D01*
X574803Y423797D02*
Y426597D01*
X573403Y393701D02*
X576203D01*
X574803Y392301D02*
Y395101D01*
X573403Y362205D02*
X576203D01*
X574803Y360805D02*
Y363605D01*
X557655Y425197D02*
X560455D01*
X559055Y423797D02*
Y426597D01*
X549781Y409449D02*
X552581D01*
X551181Y408049D02*
Y410849D01*
X557655Y393701D02*
X560455D01*
X559055Y392301D02*
Y395101D01*
X549781Y377953D02*
X552581D01*
X551181Y376553D02*
Y379353D01*
X541907Y425197D02*
X544707D01*
X543307Y423797D02*
Y426597D01*
X534033Y409449D02*
X536833D01*
X535433Y408049D02*
Y410849D01*
X534033Y346457D02*
X536833D01*
X535433Y345057D02*
Y347857D01*
X526159Y425197D02*
X528959D01*
X527559Y423797D02*
Y426597D01*
X518285Y409449D02*
X521085D01*
X519685Y408049D02*
Y410849D01*
X526159Y393701D02*
X528959D01*
X527559Y392301D02*
Y395101D01*
X518285Y346457D02*
X521085D01*
X519685Y345057D02*
Y347857D01*
X510411Y425197D02*
X513211D01*
X511811Y423797D02*
Y426597D01*
X502537Y409449D02*
X505337D01*
X503937Y408049D02*
Y410849D01*
X502537Y377953D02*
X505337D01*
X503937Y376553D02*
Y379353D01*
X502537Y346457D02*
X505337D01*
X503937Y345057D02*
Y347857D01*
X486789Y409449D02*
X489589D01*
X488189Y408049D02*
Y410849D01*
X494663Y393701D02*
X497463D01*
X496063Y392301D02*
Y395101D01*
X486789Y377953D02*
X489589D01*
X488189Y376553D02*
Y379353D01*
X494663Y362205D02*
X497463D01*
X496063Y360805D02*
Y363605D01*
X471041Y440945D02*
X473841D01*
X472441Y439545D02*
Y442345D01*
X471041Y377953D02*
X473841D01*
X472441Y376553D02*
Y379353D01*
X478915Y362205D02*
X481715D01*
X480315Y360805D02*
Y363605D01*
X455293Y440945D02*
X458093D01*
X456693Y439545D02*
Y442345D01*
X463167Y425197D02*
X465967D01*
X464567Y423797D02*
Y426597D01*
X455293Y409449D02*
X458093D01*
X456693Y408049D02*
Y410849D01*
X463167Y393701D02*
X465967D01*
X464567Y392301D02*
Y395101D01*
X455293Y377953D02*
X458093D01*
X456693Y376553D02*
Y379353D01*
X463167Y362205D02*
X465967D01*
X464567Y360805D02*
Y363605D01*
X455293Y346457D02*
X458093D01*
X456693Y345057D02*
Y347857D01*
X439545Y440945D02*
X442345D01*
X440945Y439545D02*
Y442345D01*
X447419Y425197D02*
X450219D01*
X448819Y423797D02*
Y426597D01*
X439545Y409449D02*
X442345D01*
X440945Y408049D02*
Y410849D01*
X439545Y377953D02*
X442345D01*
X440945Y376553D02*
Y379353D01*
X447419Y362205D02*
X450219D01*
X448819Y360805D02*
Y363605D01*
X439545Y346457D02*
X442345D01*
X440945Y345057D02*
Y347857D01*
X423797Y440945D02*
X426597D01*
X425197Y439545D02*
Y442345D01*
X431671Y425197D02*
X434471D01*
X433071Y423797D02*
Y426597D01*
X423797Y409449D02*
X426597D01*
X425197Y408049D02*
Y410849D01*
X423797Y377953D02*
X426597D01*
X425197Y376553D02*
Y379353D01*
X431671Y362205D02*
X434471D01*
X433071Y360805D02*
Y363605D01*
X423797Y346457D02*
X426597D01*
X425197Y345057D02*
Y347857D01*
X408049Y440945D02*
X410849D01*
X409449Y439545D02*
Y442345D01*
X415923Y425197D02*
X418723D01*
X417323Y423797D02*
Y426597D01*
X408049Y409449D02*
X410849D01*
X409449Y408049D02*
Y410849D01*
X408049Y377953D02*
X410849D01*
X409449Y376553D02*
Y379353D01*
X415923Y362205D02*
X418723D01*
X417323Y360805D02*
Y363605D01*
X408049Y346457D02*
X410849D01*
X409449Y345057D02*
Y347857D01*
X600003Y391500D02*
X601971D01*
X600987Y390516D02*
Y392484D01*
X605295Y409780D02*
X607264D01*
X606280Y408795D02*
Y410764D01*
X613516Y396000D02*
X615484D01*
X614500Y395016D02*
Y396984D01*
X507516Y388000D02*
X509484D01*
X508500Y387016D02*
Y388984D01*
X482516Y410500D02*
X484484D01*
X483500Y409516D02*
Y411484D01*
X453957Y394441D02*
X455925D01*
X454941Y393457D02*
Y395425D01*
X585516Y409500D02*
X587484D01*
X586500Y408516D02*
Y410484D01*
X585516Y396500D02*
X587484D01*
X586500Y395516D02*
Y397484D01*
X574016Y407500D02*
X575984D01*
X575000Y406516D02*
Y408484D01*
X562516Y421000D02*
X564484D01*
X563500Y420016D02*
Y421984D01*
X526075Y404559D02*
X528043D01*
X527059Y403575D02*
Y405543D01*
X468169Y352000D02*
X476831D01*
X472500Y347669D02*
Y356331D01*
X488169Y352500D02*
X496831D01*
X492500Y348169D02*
Y356831D01*
X384669Y394500D02*
X393331D01*
X389000Y390169D02*
Y398831D01*
M02*
