G04*
G04 #@! TF.GenerationSoftware,Altium Limited,Altium Designer,24.6.1 (21)*
G04*
G04 Layer_Color=255*
%FSLAX25Y25*%
%MOIN*%
G70*
G04*
G04 #@! TF.SameCoordinates,070BA572-D09E-44C5-9521-77B36399D436*
G04*
G04*
G04 #@! TF.FilePolarity,Positive*
G04*
G01*
G75*
%ADD18R,0.04724X0.04724*%
%ADD19R,0.06299X0.05906*%
%ADD20R,0.04724X0.04724*%
%ADD21R,0.05906X0.06299*%
%ADD22R,0.03937X0.03150*%
%ADD23R,0.03150X0.02362*%
%ADD24R,0.05336X0.01342*%
G04:AMPARAMS|DCode=25|XSize=53.36mil|YSize=13.42mil|CornerRadius=6.71mil|HoleSize=0mil|Usage=FLASHONLY|Rotation=180.000|XOffset=0mil|YOffset=0mil|HoleType=Round|Shape=RoundedRectangle|*
%AMROUNDEDRECTD25*
21,1,0.05336,0.00000,0,0,180.0*
21,1,0.03995,0.01342,0,0,180.0*
1,1,0.01342,-0.01997,0.00000*
1,1,0.01342,0.01997,0.00000*
1,1,0.01342,0.01997,0.00000*
1,1,0.01342,-0.01997,0.00000*
%
%ADD25ROUNDEDRECTD25*%
%ADD26R,0.03740X0.04134*%
%ADD27R,0.05315X0.01575*%
%ADD28R,0.07480X0.05906*%
%ADD29R,0.03150X0.03937*%
%ADD30R,0.04134X0.03740*%
%ADD31R,0.04134X0.09449*%
%ADD32R,0.03850X0.02200*%
%ADD33R,0.02362X0.01575*%
%ADD34R,0.04748X0.04166*%
%ADD35R,0.03100X0.01400*%
G04:AMPARAMS|DCode=36|XSize=25.59mil|YSize=64.96mil|CornerRadius=1.92mil|HoleSize=0mil|Usage=FLASHONLY|Rotation=270.000|XOffset=0mil|YOffset=0mil|HoleType=Round|Shape=RoundedRectangle|*
%AMROUNDEDRECTD36*
21,1,0.02559,0.06112,0,0,270.0*
21,1,0.02175,0.06496,0,0,270.0*
1,1,0.00384,-0.03056,-0.01088*
1,1,0.00384,-0.03056,0.01088*
1,1,0.00384,0.03056,0.01088*
1,1,0.00384,0.03056,-0.01088*
%
%ADD36ROUNDEDRECTD36*%
%ADD37C,0.05709*%
%ADD38C,0.06102*%
%ADD39R,0.06102X0.06102*%
D18*
X591563Y374413D02*
D03*
X599437D02*
D03*
X610563Y373205D02*
D03*
X618437D02*
D03*
X525937Y438795D02*
D03*
X518063D02*
D03*
D19*
X595500Y387209D02*
D03*
X614500Y386000D02*
D03*
X522000Y426000D02*
D03*
D20*
X569539Y362175D02*
D03*
Y370049D02*
D03*
D21*
X556744Y366112D02*
D03*
D22*
X644000Y373453D02*
D03*
Y367547D02*
D03*
X512000Y351547D02*
D03*
Y357453D02*
D03*
X483000Y430000D02*
D03*
X483000Y424094D02*
D03*
Y444000D02*
D03*
X483000Y438095D02*
D03*
D23*
X644000Y355146D02*
D03*
Y360854D02*
D03*
D24*
X613427Y399543D02*
D03*
D25*
X613427Y402102D02*
D03*
X613427Y404661D02*
D03*
X613427Y407221D02*
D03*
X613427Y409780D02*
D03*
X613427Y412339D02*
D03*
X613427Y414898D02*
D03*
X613427Y417457D02*
D03*
X591573D02*
D03*
X591573Y414898D02*
D03*
X591573Y412339D02*
D03*
X591573Y409780D02*
D03*
Y407221D02*
D03*
X591573Y404661D02*
D03*
X591573Y402102D02*
D03*
X591573Y399543D02*
D03*
D26*
X463354Y399500D02*
D03*
X457646D02*
D03*
X591646Y425000D02*
D03*
X597354D02*
D03*
X432354Y394500D02*
D03*
X426646D02*
D03*
X523354Y399500D02*
D03*
X517646D02*
D03*
X554354Y404500D02*
D03*
X548646D02*
D03*
X498354Y371500D02*
D03*
X492646D02*
D03*
D27*
X651185Y390882D02*
D03*
Y393441D02*
D03*
Y396000D02*
D03*
Y398559D02*
D03*
Y401118D02*
D03*
D28*
X661815Y392063D02*
D03*
Y399937D02*
D03*
D29*
X597453Y365000D02*
D03*
X591547D02*
D03*
X569047Y413000D02*
D03*
X574953D02*
D03*
X569000Y421000D02*
D03*
X574905D02*
D03*
D30*
X512000Y371354D02*
D03*
Y365646D02*
D03*
X625000Y409146D02*
D03*
Y414854D02*
D03*
X473500Y424291D02*
D03*
X473500Y430000D02*
D03*
X417000Y388646D02*
D03*
Y394354D02*
D03*
X508500Y393646D02*
D03*
Y399354D02*
D03*
X569500Y391854D02*
D03*
Y386146D02*
D03*
D31*
X495717Y419500D02*
D03*
X503000Y419500D02*
D03*
X408000Y394500D02*
D03*
X400716D02*
D03*
D32*
X491625Y430260D02*
D03*
Y434000D02*
D03*
Y437740D02*
D03*
X502375D02*
D03*
X502375Y434000D02*
D03*
Y430260D02*
D03*
X472625Y406740D02*
D03*
Y403000D02*
D03*
Y399260D02*
D03*
X483375D02*
D03*
Y403000D02*
D03*
Y406740D02*
D03*
D33*
X442866Y394441D02*
D03*
Y397000D02*
D03*
Y399559D02*
D03*
X451134D02*
D03*
Y397000D02*
D03*
Y394441D02*
D03*
D34*
X499252Y399000D02*
D03*
X492748D02*
D03*
D35*
X540700Y399441D02*
D03*
Y402000D02*
D03*
Y404559D02*
D03*
X532300D02*
D03*
Y402000D02*
D03*
Y399441D02*
D03*
D36*
X522878Y371500D02*
D03*
Y366500D02*
D03*
Y361500D02*
D03*
Y356500D02*
D03*
X545122Y371500D02*
D03*
Y366500D02*
D03*
Y361500D02*
D03*
Y356500D02*
D03*
D37*
X651185Y405842D02*
D03*
Y386157D02*
D03*
D38*
X640500Y426500D02*
D03*
D39*
X650500D02*
D03*
M02*
