G04*
G04 #@! TF.GenerationSoftware,Altium Limited,Altium Designer,24.6.1 (21)*
G04*
G04 Layer_Color=8421504*
%FSLAX25Y25*%
%MOIN*%
G70*
G04*
G04 #@! TF.SameCoordinates,5512D287-6342-4ABA-9CF6-7DAEAAFA0F20*
G04*
G04*
G04 #@! TF.FilePolarity,Positive*
G04*
G01*
G75*
%ADD16C,0.01968*%
%ADD17R,0.03937X0.03150*%
%ADD18R,0.02362X0.03150*%
%ADD19R,0.04724X0.04724*%
%ADD20R,0.06299X0.05906*%
%ADD21R,0.04134X0.03740*%
%ADD22R,0.02362X0.01575*%
%ADD23R,0.03740X0.04134*%
%ADD24R,0.05315X0.01575*%
%ADD25R,0.07480X0.05906*%
%ADD26R,0.03150X0.03937*%
%ADD27R,0.03850X0.02200*%
%ADD28R,0.04134X0.09449*%
G36*
X338240Y337390D02*
X330760Y337390D01*
Y342508D01*
X338240D01*
Y337390D01*
D02*
G37*
G36*
X336272Y335421D02*
X332728Y335421D01*
X332728Y337390D01*
X336272D01*
X336272Y335421D01*
D02*
G37*
G36*
X336272Y365736D02*
X332728D01*
Y367705D01*
X336272Y367705D01*
Y365736D01*
D02*
G37*
G36*
X338240Y360618D02*
X330760D01*
Y365736D01*
X338240D01*
Y360618D01*
D02*
G37*
D16*
X333713Y365736D02*
G03*
X333713Y365736I-984J0D01*
G01*
X337256D02*
G03*
X337256Y365736I-984J0D01*
G01*
X333713Y337390D02*
G03*
X333713Y337390I-984J0D01*
G01*
X337256D02*
G03*
X337256Y337390I-984J0D01*
G01*
D17*
X354000Y340953D02*
D03*
Y335047D02*
D03*
X408000Y362953D02*
D03*
Y357047D02*
D03*
D18*
X359354Y326500D02*
D03*
X353646D02*
D03*
D19*
X381563Y325894D02*
D03*
X389437D02*
D03*
D20*
X385500Y338689D02*
D03*
D21*
X443000Y362646D02*
D03*
Y368354D02*
D03*
D22*
X429366Y357441D02*
D03*
Y360000D02*
D03*
Y362559D02*
D03*
X437634D02*
D03*
Y360000D02*
D03*
Y357441D02*
D03*
D23*
X402146Y371500D02*
D03*
X407854D02*
D03*
X416646Y357500D02*
D03*
X422354D02*
D03*
X368646Y349500D02*
D03*
X374354D02*
D03*
D24*
X345130Y356681D02*
D03*
Y354122D02*
D03*
Y351563D02*
D03*
Y349004D02*
D03*
Y346445D02*
D03*
D25*
X334500Y355500D02*
D03*
X334500Y347626D02*
D03*
D26*
X368547Y358000D02*
D03*
X374453D02*
D03*
X407547Y349000D02*
D03*
X413453D02*
D03*
D27*
X386000Y356740D02*
D03*
Y353000D02*
D03*
Y349260D02*
D03*
X396750D02*
D03*
Y353000D02*
D03*
Y356740D02*
D03*
D28*
X385717Y372500D02*
D03*
X393000D02*
D03*
M02*
