G04*
G04 #@! TF.GenerationSoftware,Altium Limited,Altium Designer,24.6.1 (21)*
G04*
G04 Layer_Color=16711935*
%FSLAX25Y25*%
%MOIN*%
G70*
G04*
G04 #@! TF.SameCoordinates,5512D287-6342-4ABA-9CF6-7DAEAAFA0F20*
G04*
G04*
G04 #@! TF.FilePolarity,Positive*
G04*
G01*
G75*
%ADD14C,0.00300*%
%ADD39C,0.00394*%
%ADD40C,0.00000*%
%ADD41C,0.00100*%
D14*
X388175Y356880D02*
X390799Y354256D01*
X388175D02*
X390799Y356880D01*
X388175Y355568D02*
X390799D01*
X389487Y354256D02*
Y356880D01*
D39*
X390599Y328059D02*
G03*
X389328Y338944I-5099J4921D01*
G01*
X386887D02*
G03*
X384113Y338944I-1387J-1397D01*
G01*
X386750Y332980D02*
G03*
X384250Y332980I-1250J0D01*
G01*
D02*
G03*
X386750Y332980I1250J0D01*
G01*
X381672Y338944D02*
G03*
X380401Y328059I3828J-5964D01*
G01*
X352228Y341347D02*
X355772D01*
X352228Y334653D02*
X355772D01*
Y341347D01*
X352228Y334653D02*
Y341347D01*
X353350Y324925D02*
X359650D01*
Y328075D01*
X353350Y324925D02*
Y328075D01*
X359650D01*
X379594Y340067D02*
X382547D01*
X388453D02*
X391406D01*
X392587Y338886D01*
X388374Y338944D02*
Y340657D01*
X381976Y326681D02*
Y328059D01*
Y326681D02*
X389024D01*
X386887Y338944D02*
X389328D01*
X383846Y340067D02*
X387154D01*
X392587Y325106D02*
Y338886D01*
X387173Y340657D02*
X388374D01*
X382626Y338944D02*
Y340657D01*
X387173Y340067D02*
Y340657D01*
X378413Y338886D02*
X379594Y340067D01*
X389024Y328059D02*
X390599D01*
X389024Y326681D02*
Y328059D01*
X382626Y340657D02*
X383827D01*
Y340067D02*
Y340657D01*
X380401Y328059D02*
X381976D01*
X381672Y338944D02*
X384113D01*
X378413Y325106D02*
X392587D01*
X378413Y325106D02*
Y338886D01*
X400728Y339799D02*
X400728Y346492D01*
X404272D02*
X404272Y339799D01*
X400728Y346492D02*
X404272D01*
X400728Y339799D02*
X404272D01*
X437153Y358228D02*
Y361772D01*
X443847Y361772D02*
X443847Y358228D01*
X437153D02*
X443847D01*
X437153Y361772D02*
X443847Y361772D01*
X441228Y362154D02*
X444772D01*
X441228Y368846D02*
X444772D01*
X441228D02*
X441228Y362154D01*
X444772D02*
X444772Y368846D01*
X430350Y363937D02*
X436650D01*
X430350Y356063D02*
X436650D01*
X430350D02*
Y363937D01*
X436650Y356063D02*
Y363937D01*
X401653Y369728D02*
Y373272D01*
X408346Y369728D02*
Y373272D01*
X401653Y373272D02*
X408346Y373272D01*
X401653Y369728D02*
X408346Y369728D01*
X326035Y336818D02*
Y366308D01*
X344521D01*
X344539Y336818D02*
Y366327D01*
X326035Y336818D02*
X344539D01*
X327752Y384000D02*
X349248Y384000D01*
X327752Y374000D02*
Y384000D01*
Y374000D02*
X349248Y374000D01*
Y384000D01*
X400728Y358846D02*
X404272D01*
X400728Y352153D02*
X404272D01*
X400728D02*
Y358846D01*
X404272Y352153D02*
Y358846D01*
X368154Y356228D02*
Y359772D01*
X374847Y356228D02*
Y359772D01*
X368154D02*
X374847D01*
X368154Y356228D02*
X374847D01*
X416153Y355728D02*
Y359272D01*
X422847Y355728D02*
Y359272D01*
X416153D02*
X422847D01*
X416153Y355728D02*
X422847D01*
X406228Y363347D02*
X409772D01*
X406228Y356653D02*
X409772D01*
Y363347D01*
X406228Y356653D02*
Y363347D01*
X407154Y347228D02*
Y350772D01*
X413846Y347228D02*
Y350772D01*
X407154D02*
X413846D01*
X407154Y347228D02*
X413846D01*
X368154Y347728D02*
Y351272D01*
X374847Y347728D02*
Y351272D01*
X368154D02*
X374847D01*
X368154Y347728D02*
X374847D01*
D40*
X380006Y373272D02*
G03*
X380006Y373272I-8250J0D01*
G01*
X390175Y358900D02*
G03*
X392575Y358900I1200J0D01*
G01*
D41*
X360006Y370772D02*
Y375772D01*
X357506Y373272D02*
X362506D01*
X387925Y355740D02*
Y357740D01*
X385475D02*
X387925D01*
X385475Y355740D02*
Y357740D01*
Y355740D02*
X387925D01*
Y352000D02*
Y354000D01*
X385475D02*
X387925D01*
X385475Y352000D02*
Y354000D01*
Y352000D02*
X387925D01*
Y348260D02*
Y350260D01*
X385475D02*
X387925D01*
X385475Y348260D02*
Y350260D01*
Y348260D02*
X387925D01*
X394825D02*
Y350260D01*
Y348260D02*
X397275D01*
Y350260D01*
X394825D02*
X397275D01*
X394825Y352000D02*
Y354000D01*
Y352000D02*
X397275D01*
Y354000D01*
X394825D02*
X397275D01*
X394825Y355740D02*
Y357740D01*
Y355740D02*
X397275D01*
Y357740D01*
X394825D02*
X397275D01*
X387925Y347100D02*
X394825D01*
Y358900D01*
X387925D02*
X394825D01*
X387925Y347100D02*
Y358900D01*
M02*
