G04*
G04 #@! TF.GenerationSoftware,Altium Limited,Altium Designer,24.6.1 (21)*
G04*
G04 Layer_Color=16711935*
%FSLAX25Y25*%
%MOIN*%
G70*
G04*
G04 #@! TF.SameCoordinates,5512D287-6342-4ABA-9CF6-7DAEAAFA0F20*
G04*
G04*
G04 #@! TF.FilePolarity,Positive*
G04*
G01*
G75*
%ADD13C,0.00787*%
G36*
X389358Y369981D02*
X389023D01*
Y372201D01*
X387782D01*
Y372500D01*
X389358D01*
Y369981D01*
D02*
G37*
G36*
X386657Y370531D02*
X386661Y370534D01*
X386679Y370549D01*
X386701Y370571D01*
X386737Y370596D01*
X386778Y370629D01*
X386828Y370666D01*
X386887Y370706D01*
X386952Y370746D01*
X386956D01*
X386960Y370749D01*
X386981Y370764D01*
X387018Y370782D01*
X387062Y370804D01*
X387112Y370829D01*
X387167Y370855D01*
X387222Y370880D01*
X387276Y370902D01*
Y370604D01*
X387273D01*
X387265Y370596D01*
X387251Y370593D01*
X387233Y370582D01*
X387211Y370571D01*
X387185Y370556D01*
X387123Y370520D01*
X387051Y370480D01*
X386978Y370429D01*
X386901Y370371D01*
X386825Y370309D01*
X386821Y370305D01*
X386818Y370302D01*
X386807Y370290D01*
X386792Y370280D01*
X386759Y370243D01*
X386716Y370199D01*
X386672Y370149D01*
X386625Y370090D01*
X386585Y370032D01*
X386548Y369970D01*
X386348D01*
Y372500D01*
X386657D01*
Y370531D01*
D02*
G37*
D13*
X395461Y367382D02*
Y377618D01*
X383256D02*
X395461D01*
X383256Y367382D02*
Y377618D01*
Y367382D02*
X395461D01*
M02*
