G04*
G04 #@! TF.GenerationSoftware,Altium Limited,Altium Designer,24.6.1 (21)*
G04*
G04 Layer_Color=16711935*
%FSLAX25Y25*%
%MOIN*%
G70*
G04*
G04 #@! TF.SameCoordinates,5512D287-6342-4ABA-9CF6-7DAEAAFA0F20*
G04*
G04*
G04 #@! TF.FilePolarity,Positive*
G04*
G01*
G75*
%ADD39C,0.00394*%
D39*
X328791Y333984D02*
Y370067D01*
X328398Y379909D02*
X332333D01*
Y377942D01*
X331677Y377286D01*
X330365D01*
X329710Y377942D01*
Y379909D01*
X331677Y373350D02*
X332333Y374006D01*
Y375318D01*
X331677Y375974D01*
X329054D01*
X328398Y375318D01*
Y374006D01*
X329054Y373350D01*
X332333Y372038D02*
X328398D01*
Y370070D01*
X329054Y369414D01*
X329710D01*
X330365Y370070D01*
Y372038D01*
Y370070D01*
X331021Y369414D01*
X331677D01*
X332333Y370070D01*
Y372038D01*
Y361543D02*
Y364166D01*
X328398D01*
Y361543D01*
X330365Y364166D02*
Y362855D01*
X332333Y360231D02*
X328398D01*
Y358263D01*
X329054Y357607D01*
X331677D01*
X332333Y358263D01*
Y360231D01*
X331677Y353671D02*
X332333Y354327D01*
Y355639D01*
X331677Y356295D01*
X329054D01*
X328398Y355639D01*
Y354327D01*
X329054Y353671D01*
X330365D01*
Y354983D01*
X332333Y349735D02*
Y352359D01*
X328398D01*
Y349735D01*
X330365Y352359D02*
Y351047D01*
M02*
