G04*
G04 #@! TF.GenerationSoftware,Altium Limited,Altium Designer,24.6.1 (21)*
G04*
G04 Layer_Color=32896*
%FSLAX25Y25*%
%MOIN*%
G70*
G04*
G04 #@! TF.SameCoordinates,5512D287-6342-4ABA-9CF6-7DAEAAFA0F20*
G04*
G04*
G04 #@! TF.FilePolarity,Positive*
G04*
G01*
G75*
%ADD13C,0.00787*%
G36*
X366511Y355211D02*
X366311D01*
X366275Y355273D01*
X366234Y355331D01*
X366187Y355390D01*
X366143Y355441D01*
X366100Y355484D01*
X366067Y355521D01*
X366053Y355532D01*
X366042Y355542D01*
X366038Y355546D01*
X366034Y355550D01*
X365958Y355612D01*
X365881Y355670D01*
X365809Y355721D01*
X365736Y355761D01*
X365674Y355797D01*
X365649Y355812D01*
X365627Y355823D01*
X365608Y355834D01*
X365594Y355837D01*
X365587Y355845D01*
X365583D01*
Y356143D01*
X365638Y356121D01*
X365692Y356096D01*
X365747Y356070D01*
X365798Y356045D01*
X365841Y356023D01*
X365878Y356005D01*
X365900Y355990D01*
X365903Y355987D01*
X365907D01*
X365972Y355947D01*
X366031Y355907D01*
X366082Y355870D01*
X366122Y355837D01*
X366158Y355812D01*
X366180Y355790D01*
X366198Y355775D01*
X366202Y355772D01*
Y357741D01*
X366511D01*
Y355211D01*
D02*
G37*
G36*
X363923Y357737D02*
X364000Y357734D01*
X364069Y357727D01*
X364127Y357719D01*
X364178Y357712D01*
X364214Y357708D01*
X364225Y357705D01*
X364236Y357701D01*
X364243D01*
X364309Y357683D01*
X364367Y357661D01*
X364418Y357643D01*
X364462Y357621D01*
X364498Y357603D01*
X364524Y357588D01*
X364538Y357577D01*
X364546Y357574D01*
X364593Y357541D01*
X364633Y357501D01*
X364673Y357464D01*
X364706Y357428D01*
X364735Y357395D01*
X364757Y357370D01*
X364771Y357352D01*
X364775Y357344D01*
X364811Y357286D01*
X364848Y357224D01*
X364877Y357166D01*
X364899Y357108D01*
X364920Y357057D01*
X364935Y357017D01*
X364939Y357002D01*
X364942Y356991D01*
X364946Y356984D01*
Y356980D01*
X364968Y356893D01*
X364986Y356806D01*
X364997Y356722D01*
X365008Y356642D01*
X365012Y356573D01*
Y356543D01*
X365015Y356518D01*
Y356500D01*
Y356482D01*
Y356474D01*
Y356471D01*
X365012Y356347D01*
X365001Y356234D01*
X364982Y356132D01*
X364975Y356085D01*
X364964Y356045D01*
X364953Y356005D01*
X364946Y355972D01*
X364939Y355943D01*
X364928Y355918D01*
X364924Y355896D01*
X364917Y355881D01*
X364913Y355874D01*
Y355870D01*
X364873Y355775D01*
X364826Y355692D01*
X364775Y355619D01*
X364728Y355557D01*
X364684Y355506D01*
X364648Y355470D01*
X364633Y355459D01*
X364622Y355448D01*
X364618Y355444D01*
X364615Y355441D01*
X364557Y355393D01*
X364495Y355357D01*
X364433Y355324D01*
X364374Y355299D01*
X364323Y355280D01*
X364283Y355270D01*
X364269Y355262D01*
X364258D01*
X364251Y355259D01*
X364247D01*
X364185Y355248D01*
X364112Y355237D01*
X364040Y355229D01*
X363967Y355226D01*
X363901Y355222D01*
X362933D01*
Y357741D01*
X363839D01*
X363923Y357737D01*
D02*
G37*
%LPC*%
G36*
X363865Y357443D02*
X363268D01*
Y355521D01*
X363850D01*
X363898Y355524D01*
X363945D01*
X363989Y355528D01*
X364061Y355539D01*
X364120Y355546D01*
X364167Y355557D01*
X364200Y355568D01*
X364218Y355572D01*
X364225Y355575D01*
X364291Y355608D01*
X364353Y355648D01*
X364407Y355695D01*
X364455Y355743D01*
X364491Y355786D01*
X364520Y355823D01*
X364527Y355837D01*
X364535Y355848D01*
X364542Y355856D01*
Y355859D01*
X364564Y355899D01*
X364586Y355947D01*
X364618Y356041D01*
X364640Y356143D01*
X364658Y356241D01*
X364662Y356285D01*
X364666Y356329D01*
X364669Y356365D01*
Y356398D01*
X364673Y356427D01*
Y356445D01*
Y356460D01*
Y356464D01*
X364669Y356565D01*
X364662Y356660D01*
X364651Y356744D01*
X364640Y356817D01*
X364633Y356846D01*
X364626Y356871D01*
X364618Y356897D01*
X364615Y356915D01*
X364611Y356929D01*
X364608Y356940D01*
X364604Y356948D01*
Y356951D01*
X364578Y357020D01*
X364549Y357082D01*
X364516Y357137D01*
X364487Y357184D01*
X364462Y357221D01*
X364440Y357246D01*
X364425Y357261D01*
X364422Y357268D01*
X364385Y357297D01*
X364349Y357323D01*
X364313Y357344D01*
X364276Y357366D01*
X364243Y357381D01*
X364218Y357392D01*
X364200Y357395D01*
X364193Y357399D01*
X364138Y357414D01*
X364072Y357424D01*
X364007Y357432D01*
X363945Y357435D01*
X363890Y357439D01*
X363865Y357443D01*
D02*
G37*
%LPD*%
D13*
X351850Y350898D02*
Y363102D01*
X374016Y363102D01*
Y350898D02*
Y363102D01*
X351850Y350898D02*
X374016Y350898D01*
M02*
