G04*
G04 #@! TF.GenerationSoftware,Altium Limited,Altium Designer,24.6.1 (21)*
G04*
G04 Layer_Color=255*
%FSLAX25Y25*%
%MOIN*%
G70*
G04*
G04 #@! TF.SameCoordinates,5512D287-6342-4ABA-9CF6-7DAEAAFA0F20*
G04*
G04*
G04 #@! TF.FilePolarity,Positive*
G04*
G01*
G75*
%ADD17R,0.03937X0.03150*%
%ADD18R,0.02362X0.03150*%
%ADD19R,0.04724X0.04724*%
%ADD20R,0.06299X0.05906*%
%ADD21R,0.04134X0.03740*%
%ADD22R,0.02362X0.01575*%
%ADD23R,0.03740X0.04134*%
%ADD24R,0.05315X0.01575*%
%ADD25R,0.07480X0.05906*%
%ADD26R,0.03150X0.03937*%
%ADD27R,0.03850X0.02200*%
%ADD28R,0.04134X0.09449*%
%ADD29C,0.05709*%
%ADD30C,0.03700*%
%ADD31R,0.03700X0.03700*%
%ADD32C,0.06102*%
%ADD33R,0.06102X0.06102*%
D17*
X354000Y340953D02*
D03*
Y335047D02*
D03*
X408000Y362953D02*
D03*
Y357047D02*
D03*
D18*
X359354Y326500D02*
D03*
X353646D02*
D03*
D19*
X381563Y325894D02*
D03*
X389437D02*
D03*
D20*
X385500Y338689D02*
D03*
D21*
X443000Y362646D02*
D03*
Y368354D02*
D03*
D22*
X429366Y357441D02*
D03*
Y360000D02*
D03*
Y362559D02*
D03*
X437634D02*
D03*
Y360000D02*
D03*
Y357441D02*
D03*
D23*
X402146Y371500D02*
D03*
X407854D02*
D03*
X416646Y357500D02*
D03*
X422354D02*
D03*
X368646Y349500D02*
D03*
X374354D02*
D03*
D24*
X345130Y356681D02*
D03*
Y354122D02*
D03*
Y351563D02*
D03*
Y349004D02*
D03*
Y346445D02*
D03*
D25*
X334500Y355500D02*
D03*
X334500Y347626D02*
D03*
D26*
X368547Y358000D02*
D03*
X374453D02*
D03*
X407547Y349000D02*
D03*
X413453D02*
D03*
D27*
X386000Y356740D02*
D03*
Y353000D02*
D03*
Y349260D02*
D03*
X396750D02*
D03*
Y353000D02*
D03*
Y356740D02*
D03*
D28*
X385717Y372500D02*
D03*
X393000D02*
D03*
D29*
X345130Y341721D02*
D03*
Y361405D02*
D03*
D30*
X374512Y371500D02*
D03*
D31*
X369000D02*
D03*
D32*
X343500Y379000D02*
D03*
D33*
X333500D02*
D03*
M02*
