G04*
G04 #@! TF.GenerationSoftware,Altium Limited,Altium Designer,24.6.1 (21)*
G04*
G04 Layer_Color=32768*
%FSLAX25Y25*%
%MOIN*%
G70*
G04*
G04 #@! TF.SameCoordinates,070BA572-D09E-44C5-9521-77B36399D436*
G04*
G04*
G04 #@! TF.FilePolarity,Positive*
G04*
G01*
G75*
%ADD15C,0.00600*%
%ADD45C,0.00394*%
%ADD48C,0.00197*%
D15*
X501450Y439840D02*
X505300D01*
X501450D02*
Y440900D01*
X492550D02*
X501450D01*
X492550D02*
X492550Y439840D01*
X488700D02*
X492550D01*
X488700D02*
X488700Y428160D01*
X492550D01*
Y427100D02*
Y428160D01*
Y427100D02*
X501450D01*
Y428160D01*
X505300D01*
Y439840D01*
X469700Y397160D02*
Y408840D01*
X473550D01*
Y409900D01*
X482450D01*
Y408840D02*
Y409900D01*
Y408840D02*
X486300D01*
Y397160D02*
Y408840D01*
X482450Y397160D02*
X486300D01*
X482450Y396100D02*
Y397160D01*
X473550Y396100D02*
X482450D01*
X473550D02*
Y397160D01*
X469700D02*
X473550D01*
X543250Y397741D02*
Y406259D01*
X540150Y397741D02*
X543250D01*
X540150Y396650D02*
Y397741D01*
X532850Y396650D02*
X540150D01*
X532850D02*
Y397741D01*
X529750D02*
X532850D01*
X529750D02*
Y406259D01*
X532850D01*
Y407350D01*
X540150D01*
Y406259D02*
Y407350D01*
Y406259D02*
X543250D01*
D45*
X595500Y379532D02*
Y383469D01*
X593532Y381500D02*
X597469D01*
X560484Y366112D02*
X564421D01*
X562453Y364143D02*
Y368080D01*
X614500Y378323D02*
Y382260D01*
X612532Y380291D02*
X616468D01*
X522000Y429740D02*
Y433677D01*
X520031Y431709D02*
X523969D01*
X644000Y368728D02*
Y372272D01*
X642228Y370500D02*
X645772D01*
X643016Y358000D02*
X644984D01*
X644000Y357016D02*
Y358984D01*
X460500Y397728D02*
Y401272D01*
X458728Y399500D02*
X462272D01*
X656500Y394032D02*
Y397969D01*
X654531Y396000D02*
X658468D01*
X635874Y384500D02*
X639417Y384500D01*
X637646Y382728D02*
Y386272D01*
X635874Y376104D02*
X639417D01*
X637646Y374332D02*
Y377876D01*
X635963Y409372D02*
X639506D01*
X637735Y407601D02*
Y411144D01*
X635912Y392757D02*
X639456D01*
X637684Y390986D02*
Y394529D01*
X635963Y401016D02*
X639506D01*
X637735Y399244D02*
Y402788D01*
X532374Y366500D02*
X535917D01*
X534146Y364728D02*
Y368272D01*
X594500Y363228D02*
Y366772D01*
X592728Y365000D02*
X596272D01*
X510228Y354500D02*
X513772D01*
X512000Y352728D02*
Y356272D01*
X510228Y368500D02*
X513772D01*
X512000Y366728D02*
Y370272D01*
X572000Y411228D02*
Y414772D01*
X570228Y413000D02*
X573772D01*
X594500Y423228D02*
Y426772D01*
X592728Y425000D02*
X596272D01*
X623228Y412000D02*
X626772D01*
X625000Y410228D02*
Y413772D01*
X571953Y419228D02*
Y422772D01*
X570181Y421000D02*
X573724D01*
X594228Y400000D02*
X597772D01*
X596000Y401772D02*
X596000Y398228D01*
X537646Y396728D02*
Y400272D01*
X535874Y398500D02*
X539417D01*
X471728Y427146D02*
X475272Y427146D01*
X473500Y428917D02*
X473500Y425374D01*
X481228Y427047D02*
X484772D01*
X483000Y425276D02*
Y428819D01*
X481228Y441047D02*
X484772D01*
X483000Y439276D02*
Y442819D01*
X509228Y434500D02*
X512772D01*
X511000Y432728D02*
Y436272D01*
X475728Y415000D02*
X479272D01*
X477500Y413228D02*
Y416772D01*
X460000Y395728D02*
Y399272D01*
X458228Y397500D02*
X461772D01*
X429500Y392728D02*
Y396272D01*
X427728Y394500D02*
X431272D01*
X447000Y395031D02*
Y398969D01*
X445031Y397000D02*
X448969D01*
X417000Y389728D02*
Y393272D01*
X415228Y391500D02*
X418772D01*
X508500Y394728D02*
Y398272D01*
X506728Y396500D02*
X510272D01*
X518728Y399500D02*
X522272D01*
X520500Y397728D02*
Y401272D01*
X549728Y404500D02*
X553272D01*
X551500Y402728D02*
Y406272D01*
X493728Y371500D02*
X497272D01*
X495500Y369728D02*
Y373272D01*
X534000Y362032D02*
Y365968D01*
X532031Y364000D02*
X535968D01*
X569500Y387228D02*
Y390772D01*
X567728Y389000D02*
X571272D01*
D48*
X588020Y371657D02*
Y390555D01*
Y371657D02*
X602980D01*
Y390555D01*
X588020D02*
X602980D01*
X553398Y358632D02*
X572295D01*
Y373592D01*
X553398D02*
X572295D01*
X553398Y358632D02*
Y373592D01*
X607020Y370449D02*
Y389347D01*
Y370449D02*
X621980D01*
Y389347D01*
X607020D02*
X621980D01*
X529480Y422653D02*
Y441551D01*
X514520D02*
X529480D01*
X514520Y422653D02*
Y441551D01*
Y422653D02*
X529480D01*
X640063Y376996D02*
X647937D01*
X640063Y364004D02*
X647937D01*
X647937Y376996D02*
X647937Y364004D01*
X640063D02*
Y376996D01*
X642031Y353571D02*
X645968D01*
X642031D02*
Y362429D01*
X645968D01*
X646000Y353571D02*
Y362429D01*
X453807Y395366D02*
X467193D01*
X453807Y403634D02*
X467193D01*
Y395366D02*
Y403634D01*
X453807Y395366D02*
Y403634D01*
X647937Y379465D02*
Y412535D01*
X672248D01*
Y379465D02*
Y412535D01*
X647937Y379465D02*
X672248D01*
X630953Y380366D02*
Y388634D01*
X644339Y380366D02*
Y388634D01*
X630953Y380366D02*
X644339D01*
X630953Y388634D02*
X644339D01*
X630953Y371970D02*
Y380238D01*
X644339Y380238D02*
X644339Y371970D01*
X630953Y371970D02*
X644339Y371970D01*
X630953Y380238D02*
X644339Y380238D01*
X631042Y405239D02*
Y413506D01*
X644427Y405239D02*
Y413506D01*
X631042Y405239D02*
X644427D01*
X631042Y413506D02*
X644427D01*
X630991Y388623D02*
Y396891D01*
X644377Y388623D02*
Y396891D01*
X630991Y388623D02*
X644377D01*
X630991Y396891D02*
X644377D01*
X631042Y396882D02*
Y405150D01*
X644427Y396882D02*
Y405150D01*
X631042Y396882D02*
X644427D01*
X631042Y405150D02*
X644427D01*
X540839Y362366D02*
Y370634D01*
X527453Y362366D02*
Y370634D01*
X540839D01*
X527453Y362366D02*
X540839D01*
X588004Y361063D02*
X600996D01*
X588004Y368937D02*
X600996D01*
Y361063D02*
Y368937D01*
X588004Y361063D02*
Y368937D01*
X508063Y348004D02*
Y360996D01*
X515937D02*
X515937Y348004D01*
X508063D02*
X515937D01*
X508063Y360996D02*
X515937D01*
X516134Y361807D02*
Y375193D01*
X507866Y361807D02*
Y375193D01*
X516134D01*
X507866Y361807D02*
X516134D01*
X565504Y416937D02*
X578496D01*
X565504Y409063D02*
X578496D01*
X565504D02*
X565504Y416937D01*
X578496D02*
X578496Y409063D01*
X587807Y429134D02*
X601193Y429134D01*
X587807Y420866D02*
X601193D01*
X587807D02*
Y429134D01*
X601193Y420866D02*
Y429134D01*
X620866Y405307D02*
Y418693D01*
X629134Y405307D02*
Y418693D01*
X620866Y405307D02*
X629134D01*
X620866Y418693D02*
X629134D01*
X565457Y424937D02*
X578449D01*
X565457Y417063D02*
X578449Y417063D01*
X565457Y417063D02*
X565457Y424937D01*
X578449Y417063D02*
X578449Y424937D01*
X602693Y395866D02*
Y404134D01*
X589307Y395866D02*
Y404134D01*
X602693Y404134D01*
X589307Y395866D02*
X602693D01*
X530953Y402634D02*
X544339D01*
X530953Y394366D02*
X544339D01*
Y402634D01*
X530953Y394366D02*
Y402634D01*
X469366Y420453D02*
Y433839D01*
X477634Y420453D02*
Y433839D01*
X469366Y420453D02*
X477634D01*
X469366Y433839D02*
X477634D01*
X486937Y420551D02*
Y433543D01*
X479063D02*
X479063Y420551D01*
X479063Y433543D02*
X486937D01*
X479063Y420551D02*
X486937D01*
X486937Y434551D02*
Y447543D01*
X479063D02*
X479063Y434551D01*
X479063Y447543D02*
X486937D01*
X479063Y434551D02*
X486937Y434551D01*
X506866Y427807D02*
Y441193D01*
X515134Y427807D02*
X515134Y441193D01*
X506866Y441193D02*
X515134Y441193D01*
X506866Y427807D02*
X515134D01*
X470807Y410866D02*
Y419134D01*
X484193Y410866D02*
Y419134D01*
X470807Y410866D02*
X484193D01*
X470807Y419134D02*
X484193D01*
X455866Y404193D02*
X464134D01*
X455866Y390807D02*
X464134D01*
X455866D02*
Y404193D01*
X464134Y390807D02*
Y404193D01*
X422807Y390366D02*
X436193D01*
X422807Y398634D02*
X436193D01*
Y390366D02*
Y398634D01*
X422807Y390366D02*
Y398634D01*
X633866Y420614D02*
X657134Y420614D01*
Y432386D01*
X633866Y432386D02*
X657134Y432386D01*
X633866Y420614D02*
Y432386D01*
X441291Y401449D02*
X452709D01*
X441291Y392551D02*
X452709D01*
X441291D02*
Y401449D01*
X452709Y392551D02*
Y401449D01*
X412866Y384807D02*
X421134D01*
X412866Y398193D02*
X421134D01*
X412866Y384807D02*
Y398193D01*
X421134Y384807D02*
Y398193D01*
X504366Y389807D02*
X512634D01*
X504366Y403193D02*
X512634D01*
X504366Y389807D02*
Y403193D01*
X512634Y389807D02*
Y403193D01*
X527193Y395366D02*
Y403634D01*
X513807Y395366D02*
Y403634D01*
Y395366D02*
X527193D01*
X513807Y403634D02*
X527193D01*
X558193Y400366D02*
Y408634D01*
X544807Y400366D02*
Y408634D01*
Y400366D02*
X558193Y400366D01*
X544807Y408634D02*
X558193Y408634D01*
X502193Y367366D02*
Y375634D01*
X488807Y367366D02*
Y375634D01*
Y367366D02*
X502193D01*
X488807Y375634D02*
X502193D01*
X517661Y375811D02*
X550339D01*
X517661Y352189D02*
X550339D01*
X517661D02*
Y375811D01*
X550339Y352189D02*
Y375811D01*
X565366Y395693D02*
X573634D01*
X565366Y382307D02*
X573634D01*
Y395693D01*
X565366Y382307D02*
Y395693D01*
M02*
