G04*
G04 #@! TF.GenerationSoftware,Altium Limited,Altium Designer,24.6.1 (21)*
G04*
G04 Layer_Color=32896*
%FSLAX25Y25*%
%MOIN*%
G70*
G04*
G04 #@! TF.SameCoordinates,070BA572-D09E-44C5-9521-77B36399D436*
G04*
G04*
G04 #@! TF.FilePolarity,Positive*
G04*
G01*
G75*
%ADD10C,0.00984*%
%ADD13C,0.00787*%
%ADD17C,0.01000*%
D10*
X654492Y381279D02*
G03*
X654492Y381279I-492J0D01*
G01*
D13*
X648685Y370748D02*
X659315D01*
X648291Y376555D02*
X649295Y376555D01*
X658705D02*
X659709Y376555D01*
Y358445D02*
Y376555D01*
X648291Y358445D02*
X649295Y358445D01*
X658705D02*
X659709Y358445D01*
X648291D02*
Y376555D01*
D17*
X663532Y374347D02*
X667468D01*
Y372379D01*
X666812Y371723D01*
X664188D01*
X663532Y372379D01*
Y374347D01*
X667468Y367787D02*
Y370411D01*
X664844Y367787D01*
X664188D01*
X663532Y368443D01*
Y369755D01*
X664188Y370411D01*
X598076Y410480D02*
X598732Y411136D01*
X600044D01*
X600700Y410480D01*
Y407856D01*
X600044Y407200D01*
X598732D01*
X598076Y407856D01*
X594140Y407200D02*
X596764D01*
X594140Y409824D01*
Y410480D01*
X594796Y411136D01*
X596108D01*
X596764Y410480D01*
X592829Y411136D02*
X590205D01*
Y410480D01*
X592829Y407856D01*
Y407200D01*
X479576Y425480D02*
X480232Y426136D01*
X481544D01*
X482200Y425480D01*
Y422856D01*
X481544Y422200D01*
X480232D01*
X479576Y422856D01*
X475640Y422200D02*
X478264D01*
X475640Y424824D01*
Y425480D01*
X476296Y426136D01*
X477608D01*
X478264Y425480D01*
X471705Y426136D02*
X473017Y425480D01*
X474329Y424168D01*
Y422856D01*
X473673Y422200D01*
X472361D01*
X471705Y422856D01*
Y423512D01*
X472361Y424168D01*
X474329D01*
X464676Y410580D02*
X465332Y411236D01*
X466644D01*
X467300Y410580D01*
Y407956D01*
X466644Y407300D01*
X465332D01*
X464676Y407956D01*
X460740Y407300D02*
X463364D01*
X460740Y409924D01*
Y410580D01*
X461396Y411236D01*
X462708D01*
X463364Y410580D01*
X456805Y411236D02*
X459429D01*
Y409268D01*
X458117Y409924D01*
X457461D01*
X456805Y409268D01*
Y407956D01*
X457461Y407300D01*
X458773D01*
X459429Y407956D01*
X535576Y376980D02*
X536232Y377636D01*
X537544D01*
X538200Y376980D01*
Y374356D01*
X537544Y373700D01*
X536232D01*
X535576Y374356D01*
X534264Y373700D02*
X532952D01*
X533608D01*
Y377636D01*
X534264Y376980D01*
X530984Y374356D02*
X530329Y373700D01*
X529017D01*
X528361Y374356D01*
Y376980D01*
X529017Y377636D01*
X530329D01*
X530984Y376980D01*
Y376324D01*
X530329Y375668D01*
X528361D01*
X539076Y408980D02*
X539732Y409636D01*
X541044D01*
X541700Y408980D01*
Y406356D01*
X541044Y405700D01*
X539732D01*
X539076Y406356D01*
X537764Y405700D02*
X536452D01*
X537108D01*
Y409636D01*
X537764Y408980D01*
X534484D02*
X533828Y409636D01*
X532517D01*
X531861Y408980D01*
Y408324D01*
X532517Y407668D01*
X533173D01*
X532517D01*
X531861Y407012D01*
Y406356D01*
X532517Y405700D01*
X533828D01*
X534484Y406356D01*
X514976Y447580D02*
X515632Y448236D01*
X516944D01*
X517600Y447580D01*
Y444956D01*
X516944Y444300D01*
X515632D01*
X514976Y444956D01*
X513664Y444300D02*
X512352D01*
X513008D01*
Y448236D01*
X513664Y447580D01*
X510385D02*
X509728Y448236D01*
X508417D01*
X507761Y447580D01*
Y444956D01*
X508417Y444300D01*
X509728D01*
X510385Y444956D01*
Y447580D01*
M02*
