G04*
G04 #@! TF.GenerationSoftware,Altium Limited,Altium Designer,24.6.1 (21)*
G04*
G04 Layer_Color=16711935*
%FSLAX25Y25*%
%MOIN*%
G70*
G04*
G04 #@! TF.SameCoordinates,070BA572-D09E-44C5-9521-77B36399D436*
G04*
G04*
G04 #@! TF.FilePolarity,Negative*
G04*
G01*
G75*
%ADD26R,0.03740X0.04134*%
%ADD30R,0.04134X0.03740*%
%ADD37C,0.05709*%
%ADD38C,0.06102*%
%ADD39R,0.06102X0.06102*%
%ADD40C,0.03150*%
%ADD41C,0.02800*%
%ADD42C,0.11811*%
%ADD44R,0.06457X0.05512*%
D26*
X634791Y384500D02*
D03*
X640500Y384500D02*
D03*
X634791Y376104D02*
D03*
X640500D02*
D03*
X634880Y409372D02*
D03*
X640589D02*
D03*
X634830Y392757D02*
D03*
X640538D02*
D03*
X634880Y401016D02*
D03*
X640589D02*
D03*
X537000Y366500D02*
D03*
X531291D02*
D03*
X598854Y400000D02*
D03*
X593146D02*
D03*
X540500Y398500D02*
D03*
X534791D02*
D03*
X474646Y415000D02*
D03*
X480354D02*
D03*
D30*
X511000Y437354D02*
D03*
Y431646D02*
D03*
X460000Y400354D02*
D03*
Y394646D02*
D03*
D37*
X651185Y405842D02*
D03*
Y386157D02*
D03*
D38*
X640500Y426500D02*
D03*
D39*
X650500D02*
D03*
D40*
X569000Y396000D02*
D03*
X522000Y433000D02*
D03*
X535500Y352500D02*
D03*
X600987Y391500D02*
D03*
X606280Y409780D02*
D03*
X614500Y396000D02*
D03*
X508500Y388000D02*
D03*
X483500Y410500D02*
D03*
X454941Y394441D02*
D03*
X586500Y409500D02*
D03*
Y396500D02*
D03*
X575000Y407500D02*
D03*
X563500Y421000D02*
D03*
X527059Y404559D02*
D03*
D41*
X645669Y377953D02*
D03*
X543672Y393701D02*
D03*
X661417Y440945D02*
D03*
X669291Y425197D02*
D03*
Y393701D02*
D03*
Y362205D02*
D03*
X661417Y346457D02*
D03*
X645669Y440945D02*
D03*
Y346457D02*
D03*
X629921Y440945D02*
D03*
Y409449D02*
D03*
X637795Y362205D02*
D03*
X629921Y346457D02*
D03*
X614173Y440945D02*
D03*
X622047Y362205D02*
D03*
X614173Y346457D02*
D03*
X598425Y440945D02*
D03*
X606299Y393701D02*
D03*
Y362205D02*
D03*
X582677Y440945D02*
D03*
Y409449D02*
D03*
X566929Y440945D02*
D03*
X574803Y425197D02*
D03*
Y393701D02*
D03*
Y362205D02*
D03*
X559055Y425197D02*
D03*
X551181Y409449D02*
D03*
X559055Y393701D02*
D03*
X551181Y377953D02*
D03*
X543307Y425197D02*
D03*
X535433Y409449D02*
D03*
Y346457D02*
D03*
X527559Y425197D02*
D03*
X519685Y409449D02*
D03*
X527559Y393701D02*
D03*
X519685Y346457D02*
D03*
X511811Y425197D02*
D03*
X503937Y409449D02*
D03*
Y377953D02*
D03*
Y346457D02*
D03*
X488189Y409449D02*
D03*
X496063Y393701D02*
D03*
X488189Y377953D02*
D03*
X496063Y362205D02*
D03*
X472441Y440945D02*
D03*
Y377953D02*
D03*
X480315Y362205D02*
D03*
X456693Y440945D02*
D03*
X464567Y425197D02*
D03*
X456693Y409449D02*
D03*
X464567Y393701D02*
D03*
X456693Y377953D02*
D03*
X464567Y362205D02*
D03*
X456693Y346457D02*
D03*
X440945Y440945D02*
D03*
X448819Y425197D02*
D03*
X440945Y409449D02*
D03*
Y377953D02*
D03*
X448819Y362205D02*
D03*
X440945Y346457D02*
D03*
X425197Y440945D02*
D03*
X433071Y425197D02*
D03*
X425197Y409449D02*
D03*
Y377953D02*
D03*
X433071Y362205D02*
D03*
X425197Y346457D02*
D03*
X409449Y440945D02*
D03*
X417323Y425197D02*
D03*
X409449Y409449D02*
D03*
Y377953D02*
D03*
X417323Y362205D02*
D03*
X409449Y346457D02*
D03*
D42*
X472500Y352000D02*
D03*
X492500Y352500D02*
D03*
X389000Y394500D02*
D03*
D44*
X654000Y359567D02*
D03*
Y375433D02*
D03*
M02*
