M48
;Layer_Color=9474304
;FILE_FORMAT=2:4
INCH,TZ
;TYPE=PLATED
T01F00S00C0.0197
T03F00S00C0.0280
T04F00S00C0.0335
T05F00S00C0.0402
T06F00S00C0.0866
%
T01
X45494Y39444
X48350Y41050
X50850Y38800
X52706Y40456
X52200Y43300
X56350Y42100
X57500Y40750
X58650Y40950
Y39650
X56900Y39600
X60099Y39150
X61450Y39600
X60628Y40978
X53550Y35250
T03
X40945Y34646
X42520
X44094
X45669
X46457Y36220
X44882
X43307
X41732
X40945Y37795
X42520
X44094
X45669
X46457Y39370
X45669Y40945
X44094
X42520
X40945
X41732Y42520
X43307
X44882
X46457
X45669Y44094
X44094
X42520
X40945
X47244
X48819Y40945
X50394
X51968
X53543
X55118
X54367Y39370
X55906
X57480
X58268Y40945
X57480Y42520
X55906
X54331
X52756
X51181
X52756Y39370
X49606
X48819Y37795
X50394
X49606Y36220
X48031
X47244Y37795
X50394Y34646
X51968
X53543
X55118Y37795
X57480Y36220
X60630
X62205
X61417Y34646
X60630Y39370
X59843Y44094
X61417
X58268
X56693
X62992
X64567
X66142
X66929Y42520
Y39370
Y36220
X66142Y34646
X64567
X62992
X63780Y36220
X64567Y37795
X62992Y40945
T04
X65118Y38616
Y40584
T05
X64050Y42650
X65050
T06
X38900Y39450
X47250Y35200
X49250Y35250
M30
