G04*
G04 #@! TF.GenerationSoftware,Altium Limited,Altium Designer,24.6.1 (21)*
G04*
G04 Layer_Color=65535*
%FSLAX25Y25*%
%MOIN*%
G70*
G04*
G04 #@! TF.SameCoordinates,5512D287-6342-4ABA-9CF6-7DAEAAFA0F20*
G04*
G04*
G04 #@! TF.FilePolarity,Positive*
G04*
G01*
G75*
%ADD10C,0.00984*%
%ADD11C,0.00600*%
%ADD12C,0.01575*%
%ADD13C,0.00787*%
%ADD14C,0.00300*%
%ADD15C,0.01000*%
D10*
X382055Y321366D02*
G03*
X382055Y321366I-492J0D01*
G01*
X438126Y354488D02*
G03*
X438126Y354488I-492J0D01*
G01*
X350445Y356681D02*
G03*
X350445Y356681I-492J0D01*
G01*
D11*
X380506Y373272D02*
G03*
X380506Y373272I-8750J0D01*
G01*
X360006Y370772D02*
Y375772D01*
X357506Y373272D02*
X362506D01*
X387425Y346600D02*
X395325D01*
X387425Y359400D02*
X395325D01*
D12*
X362504Y324925D02*
Y328075D01*
D13*
X392587Y329831D02*
Y338886D01*
X391406Y340067D02*
X392587Y338886D01*
X390224Y340067D02*
X391406D01*
X379594Y340067D02*
X380776D01*
X378413Y338886D02*
X379594Y340067D01*
X378413Y329831D02*
Y338886D01*
X432122Y355945D02*
Y364055D01*
X434878Y355945D02*
Y364055D01*
X432122D02*
X434878D01*
X432122Y355945D02*
X434878D01*
X326036Y366307D02*
X329232D01*
X339768Y366308D02*
X344521D01*
Y365791D02*
Y366308D01*
X344539Y336818D02*
Y337331D01*
X339768Y336818D02*
X344539D01*
X326035D02*
X329232D01*
X326036Y336819D02*
Y366307D01*
X327752Y384000D02*
X349248Y384000D01*
X327752Y374000D02*
Y384000D01*
Y374000D02*
X349248Y374000D01*
Y384000D01*
X384043Y378799D02*
X394673D01*
X384043Y366201D02*
X394673D01*
D14*
X383000Y362280D02*
X385624Y359656D01*
X383000D02*
X385624Y362280D01*
X383000Y360968D02*
X385624D01*
X384312Y359656D02*
Y362280D01*
D15*
X330000Y332468D02*
X328688D01*
X329344D01*
Y329188D01*
X328688Y328532D01*
X328032D01*
X327376Y329188D01*
X331312Y328532D02*
X332624D01*
X331968D01*
Y332468D01*
X331312Y331812D01*
X433720Y350968D02*
Y347688D01*
X434376Y347032D01*
X435688D01*
X436344Y347688D01*
Y350968D01*
X440280Y347032D02*
X437656D01*
X440280Y349656D01*
Y350312D01*
X439624Y350968D01*
X438312D01*
X437656Y350312D01*
X397876Y363968D02*
Y360688D01*
X398532Y360032D01*
X399844D01*
X400500Y360688D01*
Y363968D01*
X401812Y360032D02*
X403124D01*
X402468D01*
Y363968D01*
X401812Y363312D01*
X410220Y340032D02*
Y343968D01*
X412188D01*
X412844Y343312D01*
Y342000D01*
X412188Y341344D01*
X410220D01*
X411532D02*
X412844Y340032D01*
X416124D02*
Y343968D01*
X414156Y342000D01*
X416780D01*
X415220Y369532D02*
Y373468D01*
X417188D01*
X417844Y372812D01*
Y371500D01*
X417188Y370844D01*
X415220D01*
X416532D02*
X417844Y369532D01*
X419156Y372812D02*
X419812Y373468D01*
X421124D01*
X421780Y372812D01*
Y372156D01*
X421124Y371500D01*
X420468D01*
X421124D01*
X421780Y370844D01*
Y370188D01*
X421124Y369532D01*
X419812D01*
X419156Y370188D01*
X368720Y330532D02*
Y334468D01*
X370688D01*
X371344Y333812D01*
Y332500D01*
X370688Y331844D01*
X368720D01*
X370032D02*
X371344Y330532D01*
X375280D02*
X372656D01*
X375280Y333156D01*
Y333812D01*
X374624Y334468D01*
X373312D01*
X372656Y333812D01*
X357876Y356532D02*
Y360468D01*
X359844D01*
X360500Y359812D01*
Y358500D01*
X359844Y357844D01*
X357876D01*
X359188D02*
X360500Y356532D01*
X361812D02*
X363124D01*
X362468D01*
Y360468D01*
X361812Y359812D01*
X353280Y382032D02*
Y385968D01*
X354592Y384656D01*
X355904Y385968D01*
Y382032D01*
X357216Y385968D02*
X358528D01*
X357872D01*
Y382032D01*
X357216D01*
X358528D01*
X363120Y385312D02*
X362464Y385968D01*
X361152D01*
X360496Y385312D01*
Y382688D01*
X361152Y382032D01*
X362464D01*
X363120Y382688D01*
X364432Y382032D02*
X365743D01*
X365087D01*
Y385968D01*
X364432Y385312D01*
X383900Y386136D02*
Y382200D01*
X386524D01*
X387836D02*
X389148D01*
X388492D01*
Y386136D01*
X387836Y385480D01*
X412344Y378812D02*
X411688Y379468D01*
X410376D01*
X409720Y378812D01*
Y376188D01*
X410376Y375532D01*
X411688D01*
X412344Y376188D01*
X415624Y375532D02*
Y379468D01*
X413656Y377500D01*
X416280D01*
X435344Y370812D02*
X434688Y371468D01*
X433376D01*
X432720Y370812D01*
Y368188D01*
X433376Y367532D01*
X434688D01*
X435344Y368188D01*
X436656Y370812D02*
X437312Y371468D01*
X438624D01*
X439280Y370812D01*
Y370156D01*
X438624Y369500D01*
X437968D01*
X438624D01*
X439280Y368844D01*
Y368188D01*
X438624Y367532D01*
X437312D01*
X436656Y368188D01*
X418844Y366312D02*
X418188Y366968D01*
X416876D01*
X416220Y366312D01*
Y363688D01*
X416876Y363032D01*
X418188D01*
X418844Y363688D01*
X422780Y363032D02*
X420156D01*
X422780Y365656D01*
Y366312D01*
X422124Y366968D01*
X420812D01*
X420156Y366312D01*
X359688Y350000D02*
X359032Y349344D01*
Y348032D01*
X359688Y347376D01*
X362312D01*
X362968Y348032D01*
Y349344D01*
X362312Y350000D01*
X362968Y351312D02*
Y352624D01*
Y351968D01*
X359032D01*
X359688Y351312D01*
M02*
