M48
;Layer_Color=9474304
;FILE_FORMAT=2:4
INCH,TZ
;TYPE=PLATED
T01F00S00C0.0197
T02F00S00C0.0230
T04F00S00C0.0280
T05F00S00C0.0335
T06F00S00C0.0402
T07F00S00C0.0472
%
T01
X36350Y35750
X38000Y35800
X39150Y35450
X41400Y36300
X42000Y34900
X39689Y32589
X35500Y36750
T02
X36900Y37150
X37451
T04
X33071Y33071
X34646
X36220
X35433Y34646
Y37795
X37008
X37795Y36220
X39370
X40157Y37795
X41732
X42520Y36220
Y33071
X40945
T05
X34513Y34172
Y36141
T06
X33350Y37900
X34350
T07
X44200Y38150
M30
