G04*
G04 #@! TF.GenerationSoftware,Altium Limited,Altium Designer,24.6.1 (21)*
G04*
G04 Layer_Color=32896*
%FSLAX25Y25*%
%MOIN*%
G70*
G04*
G04 #@! TF.SameCoordinates,5512D287-6342-4ABA-9CF6-7DAEAAFA0F20*
G04*
G04*
G04 #@! TF.FilePolarity,Positive*
G04*
G01*
G75*
%ADD10C,0.00984*%
%ADD13C,0.00787*%
%ADD15C,0.01000*%
D10*
X349646Y357000D02*
G03*
X349646Y357000I-492J0D01*
G01*
D13*
X359685Y351685D02*
X359685Y362315D01*
X353878Y351291D02*
Y352295D01*
Y361705D02*
Y362709D01*
X371988Y362709D01*
Y352295D02*
X371988Y351291D01*
X371988Y361705D02*
Y362709D01*
X353878Y351291D02*
X371988D01*
D15*
X354400Y370436D02*
Y366500D01*
X352432D01*
X351776Y367156D01*
Y369780D01*
X352432Y370436D01*
X354400D01*
X350464Y366500D02*
X349152D01*
X349808D01*
Y370436D01*
X350464Y369780D01*
X384468Y348812D02*
X385124Y349468D01*
X386436D01*
X387092Y348812D01*
Y346188D01*
X386436Y345532D01*
X385124D01*
X384468Y346188D01*
X380532Y345532D02*
X383156D01*
X380532Y348156D01*
Y348812D01*
X381188Y349468D01*
X382500D01*
X383156Y348812D01*
X379220Y345532D02*
X377908D01*
X378564D01*
Y349468D01*
X379220Y348812D01*
X407176Y368580D02*
X407832Y369236D01*
X409144D01*
X409800Y368580D01*
Y365956D01*
X409144Y365300D01*
X407832D01*
X407176Y365956D01*
X403240Y365300D02*
X405864D01*
X403240Y367924D01*
Y368580D01*
X403896Y369236D01*
X405208D01*
X405864Y368580D01*
X401929D02*
X401273Y369236D01*
X399961D01*
X399305Y368580D01*
Y365956D01*
X399961Y365300D01*
X401273D01*
X401929Y365956D01*
Y368580D01*
X408188Y343796D02*
X407532Y344452D01*
Y345764D01*
X408188Y346420D01*
X410812D01*
X411468Y345764D01*
Y344452D01*
X410812Y343796D01*
X411468Y342484D02*
Y341172D01*
Y341828D01*
X407532D01*
X408188Y342484D01*
X410812Y339204D02*
X411468Y338548D01*
Y337236D01*
X410812Y336580D01*
X408188D01*
X407532Y337236D01*
Y338548D01*
X408188Y339204D01*
X408844D01*
X409500Y338548D01*
Y336580D01*
M02*
