G04*
G04 #@! TF.GenerationSoftware,Altium Limited,Altium Designer,24.6.1 (21)*
G04*
G04 Layer_Color=32768*
%FSLAX25Y25*%
%MOIN*%
G70*
G04*
G04 #@! TF.SameCoordinates,5512D287-6342-4ABA-9CF6-7DAEAAFA0F20*
G04*
G04*
G04 #@! TF.FilePolarity,Positive*
G04*
G01*
G75*
%ADD11C,0.00600*%
%ADD39C,0.00394*%
%ADD42C,0.00197*%
D11*
X362506Y377080D02*
X367947Y382522D01*
X362506Y369463D02*
Y377080D01*
Y369463D02*
X367947Y364022D01*
X375565D01*
X381006Y369463D01*
Y377080D01*
X375565Y382522D02*
X381006Y377080D01*
X367947Y382522D02*
X375565D01*
X383075Y347160D02*
Y358840D01*
X386925D01*
Y359900D01*
X395825D01*
Y358840D02*
Y359900D01*
Y358840D02*
X399675D01*
Y347160D02*
Y358840D01*
X395825Y347160D02*
X399675D01*
X395825Y346100D02*
Y347160D01*
X386925Y346100D02*
X395825D01*
X386925D02*
Y347160D01*
X383075D02*
X386925D01*
D39*
X354000Y336228D02*
Y339772D01*
X352228Y338000D02*
X355772D01*
X356500Y325516D02*
Y327484D01*
X355516Y326500D02*
X357484D01*
X385500Y331012D02*
Y334949D01*
X383531Y332980D02*
X387469D01*
X400728Y343146D02*
X404272D01*
X402500Y341374D02*
Y344917D01*
X438728Y360000D02*
X442272D01*
X440500Y358228D02*
Y361772D01*
X443000Y363728D02*
Y367272D01*
X441228Y365500D02*
X444772D01*
X433500Y358032D02*
Y361968D01*
X431531Y360000D02*
X435468D01*
X403228Y371500D02*
X406772D01*
X405000Y369728D02*
Y373272D01*
X339815Y349594D02*
Y353532D01*
X337846Y351563D02*
X341783D01*
X402500Y353728D02*
Y357272D01*
X400728Y355500D02*
X404272D01*
X369728Y358000D02*
X373272D01*
X371500Y356228D02*
Y359772D01*
X417728Y357500D02*
X421272D01*
X419500Y355728D02*
Y359272D01*
X408000Y358228D02*
Y361772D01*
X406228Y360000D02*
X409772D01*
X408728Y349000D02*
X412272D01*
X410500Y347228D02*
Y350772D01*
X369728Y349500D02*
X373272D01*
X371500Y347728D02*
Y351272D01*
D42*
X350063Y344496D02*
X357937D01*
X350063Y331504D02*
X357937D01*
X357937Y344496D02*
X357937Y331504D01*
X350063D02*
Y344496D01*
X360929Y324532D02*
Y328468D01*
X352071Y324532D02*
X360929D01*
X352071D02*
Y328468D01*
Y328500D02*
X360929D01*
X378020Y323138D02*
Y342035D01*
Y323138D02*
X392980D01*
Y342035D01*
X378020D02*
X392980D01*
X398366Y349839D02*
X398366Y336453D01*
X406634Y349839D02*
X406634Y336453D01*
X398366Y349839D02*
X406634Y349839D01*
X398366Y336453D02*
X406634D01*
X433807Y355866D02*
X433807Y364134D01*
X447193Y355866D02*
Y364134D01*
X433807Y355866D02*
X447193D01*
X433807Y364134D02*
X447193Y364134D01*
X438866Y358807D02*
X447134D01*
X438866Y372193D02*
X447134D01*
X438866D02*
X438866Y358807D01*
X447134D02*
X447134Y372193D01*
X427791Y364449D02*
X439209D01*
X427791Y355551D02*
X439209D01*
X427791D02*
Y364449D01*
X439209Y355551D02*
Y364449D01*
X398307Y367366D02*
Y375634D01*
X411693Y367366D02*
Y375634D01*
X398307Y375634D02*
X411693Y375634D01*
X398307Y367366D02*
X411693Y367366D01*
X348378Y335028D02*
Y368098D01*
X324067Y335028D02*
X348378D01*
X324067D02*
Y368098D01*
X348378D01*
X326866Y384886D02*
X350134Y384886D01*
X326866Y373114D02*
Y384886D01*
Y373114D02*
X350134Y373114D01*
Y384886D01*
X398366Y362193D02*
X406634D01*
X398366Y348807D02*
X406634D01*
X398366D02*
Y362193D01*
X406634D02*
X406634Y348807D01*
X365004Y354063D02*
Y361937D01*
X377996Y354063D02*
Y361937D01*
X365004Y361937D02*
X377996Y361937D01*
X365004Y354063D02*
X377996D01*
X412807Y353366D02*
Y361634D01*
X426193Y353366D02*
Y361634D01*
X412807D02*
X426193D01*
X412807Y353366D02*
X426193D01*
X404063Y366496D02*
X411937D01*
X404063Y353504D02*
X411937D01*
X411937Y366496D02*
X411937Y353504D01*
X404063D02*
Y366496D01*
X404004Y345063D02*
Y352937D01*
X416996Y345063D02*
Y352937D01*
X404004D02*
X416996D01*
X404004Y345063D02*
X416996D01*
X364807Y345366D02*
Y353634D01*
X378193Y345366D02*
Y353634D01*
X364807D02*
X378193D01*
X364807Y345366D02*
X378193D01*
M02*
