G04*
G04 #@! TF.GenerationSoftware,Altium Limited,Altium Designer,24.6.1 (21)*
G04*
G04 Layer_Physical_Order=1*
G04 Layer_Color=255*
%FSLAX25Y25*%
%MOIN*%
G70*
G04*
G04 #@! TF.SameCoordinates,5512D287-6342-4ABA-9CF6-7DAEAAFA0F20*
G04*
G04*
G04 #@! TF.FilePolarity,Positive*
G04*
G01*
G75*
%ADD15C,0.01000*%
%ADD16C,0.01968*%
%ADD17R,0.03937X0.03150*%
%ADD18R,0.02362X0.03150*%
%ADD19R,0.04724X0.04724*%
%ADD20R,0.06299X0.05906*%
%ADD21R,0.04134X0.03740*%
%ADD22R,0.02362X0.01575*%
%ADD23R,0.03740X0.04134*%
%ADD24R,0.05315X0.01575*%
%ADD25R,0.07480X0.05906*%
%ADD26R,0.03150X0.03937*%
%ADD27R,0.03850X0.02200*%
%ADD28R,0.04134X0.09449*%
%ADD29C,0.05709*%
%ADD30C,0.03700*%
%ADD31R,0.03700X0.03700*%
%ADD32C,0.06102*%
%ADD33R,0.06102X0.06102*%
%ADD34C,0.03150*%
%ADD35C,0.02800*%
%ADD36C,0.07874*%
%ADD37C,0.02000*%
G36*
X430000Y372000D02*
X441378D01*
Y370815D01*
X440343D01*
Y365894D01*
X445657D01*
Y370815D01*
X444622D01*
Y372000D01*
X447000D01*
Y320000D01*
X326500D01*
Y387500D01*
X430000D01*
Y372000D01*
D02*
G37*
%LPC*%
G36*
X371441Y373940D02*
X366560D01*
Y369059D01*
X371441D01*
Y373940D01*
D02*
G37*
G36*
X410315Y374158D02*
X405394D01*
Y368843D01*
X406742D01*
Y365118D01*
X405441D01*
Y360787D01*
X410559D01*
Y361888D01*
X412117D01*
X412164Y361773D01*
X412773Y361164D01*
X413569Y360835D01*
X414431D01*
X415227Y361164D01*
X415836Y361773D01*
X416165Y362569D01*
Y363431D01*
X415836Y364227D01*
X415227Y364836D01*
X414431Y365165D01*
X413569D01*
X412773Y364836D01*
X412164Y364227D01*
X412117Y364112D01*
X410559D01*
Y365118D01*
X408966D01*
Y368843D01*
X410315D01*
Y374158D01*
D02*
G37*
G36*
X445657Y365106D02*
X440343D01*
Y364181D01*
X437634D01*
X437013Y364057D01*
X436833Y363937D01*
X435862D01*
Y361181D01*
X436833D01*
X437013Y361061D01*
X437634Y360937D01*
X440343D01*
Y360185D01*
X445657D01*
Y365106D01*
D02*
G37*
G36*
X336272Y368344D02*
X332728Y368344D01*
X332634Y368305D01*
X332060Y368229D01*
X331438Y367971D01*
X330903Y367561D01*
X330493Y367027D01*
X330235Y366404D01*
X330160Y365830D01*
X330121Y365736D01*
Y360618D01*
X330308Y360166D01*
X330760Y359979D01*
X338240D01*
X338692Y360166D01*
X338879Y360618D01*
Y365736D01*
X338840Y365830D01*
X338765Y366404D01*
X338507Y367027D01*
X338097Y367561D01*
X337562Y367971D01*
X336940Y368229D01*
X336366Y368305D01*
X336272Y368344D01*
D02*
G37*
G36*
X419106Y360157D02*
X414185D01*
Y359122D01*
X410559D01*
Y359213D01*
X405441D01*
Y358362D01*
X399266D01*
Y358431D01*
X394234D01*
Y355444D01*
X393867Y355120D01*
X393734Y355083D01*
X393581Y355134D01*
X393336Y355727D01*
X392727Y356336D01*
X391931Y356665D01*
X391069D01*
X390273Y356336D01*
X389664Y355727D01*
X389335Y354931D01*
Y354069D01*
X389664Y353273D01*
X390273Y352664D01*
X391069Y352335D01*
X391714D01*
X392069Y351980D01*
X392069Y351980D01*
X392589Y351632D01*
X393204Y351510D01*
X393204Y351510D01*
X394034D01*
X394234Y351309D01*
Y350950D01*
X394234Y350809D01*
Y347569D01*
X399266D01*
Y348148D01*
X405382D01*
Y346441D01*
X409713D01*
Y351559D01*
X405382D01*
Y350372D01*
X399619D01*
X399266Y350725D01*
Y351309D01*
X399266Y351450D01*
Y354550D01*
X399266Y354691D01*
X399440Y355118D01*
X405441D01*
Y354882D01*
X410559D01*
Y355878D01*
X414185D01*
Y354842D01*
X419106D01*
Y360157D01*
D02*
G37*
G36*
X343979Y382642D02*
X343021D01*
X342094Y382394D01*
X341264Y381914D01*
X340586Y381236D01*
X340106Y380406D01*
X339858Y379479D01*
Y378521D01*
X340106Y377594D01*
X340586Y376764D01*
X341264Y376086D01*
X342094Y375606D01*
X343021Y375358D01*
X343979D01*
X344683Y375547D01*
X352835Y367395D01*
Y367069D01*
X353164Y366273D01*
X353773Y365664D01*
X354569Y365335D01*
X354895D01*
X356347Y363882D01*
Y362618D01*
X352016Y358287D01*
X347578D01*
X347383Y358787D01*
X347886Y359290D01*
X348340Y360076D01*
X348575Y360952D01*
Y361859D01*
X348340Y362735D01*
X347886Y363521D01*
X347245Y364162D01*
X346460Y364616D01*
X345583Y364850D01*
X344676D01*
X343800Y364616D01*
X343015Y364162D01*
X342373Y363521D01*
X341920Y362735D01*
X341685Y361859D01*
Y360952D01*
X341920Y360076D01*
X342373Y359290D01*
X343015Y358649D01*
X343170Y358559D01*
X343036Y358059D01*
X341882D01*
Y355303D01*
Y352744D01*
Y350185D01*
Y347626D01*
X348378D01*
Y350185D01*
Y355076D01*
X349750D01*
Y343203D01*
X349750Y343203D01*
X349872Y342589D01*
X350220Y342068D01*
X351441Y340847D01*
Y338787D01*
X356559D01*
Y343118D01*
X353712D01*
X352961Y343868D01*
Y354691D01*
X353816Y355546D01*
X353817Y355546D01*
X358618Y360347D01*
X366382D01*
Y358612D01*
X365383D01*
X365336Y358727D01*
X364727Y359336D01*
X363931Y359665D01*
X363069D01*
X362273Y359336D01*
X361664Y358727D01*
X361335Y357931D01*
Y357069D01*
X361664Y356273D01*
X362273Y355664D01*
X363069Y355335D01*
X363931D01*
X364727Y355664D01*
X365336Y356273D01*
X365383Y356388D01*
X366382D01*
Y355441D01*
X367534D01*
Y352157D01*
X366185D01*
Y346843D01*
X371106D01*
Y352157D01*
X369758D01*
Y355441D01*
X370713D01*
Y359205D01*
X371161Y359361D01*
X371213Y359363D01*
X372287Y358288D01*
Y355441D01*
X376618D01*
Y356394D01*
X378543D01*
X378773Y356164D01*
X379569Y355835D01*
X380431D01*
X381227Y356164D01*
X381836Y356773D01*
X382165Y357569D01*
Y358431D01*
X381836Y359227D01*
X381227Y359836D01*
X380431Y360165D01*
X379569D01*
X378773Y359836D01*
X378543Y359606D01*
X376618D01*
Y360559D01*
X374558D01*
X373572Y361545D01*
X373471Y361696D01*
X372079Y363088D01*
X371558Y363436D01*
X370944Y363558D01*
X370944Y363558D01*
X359558D01*
Y364547D01*
X359436Y365162D01*
X359088Y365683D01*
X359088Y365683D01*
X357165Y367605D01*
Y367931D01*
X356836Y368727D01*
X356227Y369336D01*
X355431Y369665D01*
X355105D01*
X346953Y377817D01*
X347142Y378521D01*
Y379479D01*
X346894Y380406D01*
X346414Y381236D01*
X345736Y381914D01*
X344906Y382394D01*
X343979Y382642D01*
D02*
G37*
G36*
X388374Y377815D02*
X383059D01*
Y367185D01*
X384605D01*
Y358431D01*
X383485D01*
Y355050D01*
X388515D01*
Y358431D01*
X386828D01*
Y367185D01*
X388374D01*
Y377815D01*
D02*
G37*
G36*
X424815Y360157D02*
X419894D01*
Y354842D01*
X424815D01*
Y355819D01*
X429366D01*
X429987Y355943D01*
X430167Y356063D01*
X431138D01*
Y358819D01*
X430167D01*
X429987Y358939D01*
X429366Y359063D01*
X424815D01*
Y360157D01*
D02*
G37*
G36*
X338831Y359043D02*
X330169D01*
Y351957D01*
X338831D01*
Y359043D01*
D02*
G37*
G36*
X439405Y358819D02*
X435862D01*
Y357635D01*
X428339Y350112D01*
X421883D01*
X421836Y350227D01*
X421227Y350836D01*
X420431Y351165D01*
X419569D01*
X418773Y350836D01*
X418543Y350606D01*
X415618D01*
Y351559D01*
X411287D01*
Y346441D01*
X415618D01*
Y347394D01*
X418543D01*
X418773Y347164D01*
X419569Y346835D01*
X420431D01*
X421227Y347164D01*
X421836Y347773D01*
X421883Y347888D01*
X428799D01*
X428799Y347888D01*
X429225Y347973D01*
X429586Y348214D01*
X437435Y356063D01*
X439405D01*
Y358819D01*
D02*
G37*
G36*
X338831Y351169D02*
X330169D01*
Y344083D01*
X338831D01*
Y351169D01*
D02*
G37*
G36*
X345583Y345165D02*
X344676D01*
X343800Y344931D01*
X343015Y344477D01*
X342373Y343836D01*
X341920Y343050D01*
X341685Y342174D01*
Y341267D01*
X341920Y340391D01*
X342373Y339605D01*
X343015Y338964D01*
X343800Y338510D01*
X344676Y338276D01*
X345583D01*
X346460Y338510D01*
X347245Y338964D01*
X347886Y339605D01*
X348340Y340391D01*
X348575Y341267D01*
Y342174D01*
X348340Y343050D01*
X347886Y343836D01*
X347245Y344477D01*
X346460Y344931D01*
X345583Y345165D01*
D02*
G37*
G36*
X376815Y352157D02*
X371894D01*
Y346843D01*
X376815D01*
Y348148D01*
X383485D01*
Y347569D01*
X384388D01*
Y342232D01*
X381760D01*
Y335146D01*
X389240D01*
Y342232D01*
X386612D01*
Y347569D01*
X388515D01*
Y350950D01*
X383485D01*
Y350372D01*
X376815D01*
Y352157D01*
D02*
G37*
G36*
X338240Y343147D02*
X330760D01*
X330308Y342960D01*
X330121Y342508D01*
Y337390D01*
X330160Y337296D01*
X330235Y336722D01*
X330493Y336099D01*
X330903Y335565D01*
X331438Y335154D01*
X332060Y334897D01*
X332634Y334821D01*
X332728Y334782D01*
X336272Y334782D01*
X336366Y334821D01*
X336940Y334897D01*
X337562Y335154D01*
X338097Y335565D01*
X338507Y336099D01*
X338765Y336722D01*
X338840Y337296D01*
X338879Y337390D01*
Y342508D01*
X338692Y342960D01*
X338240Y343147D01*
D02*
G37*
G36*
X356559Y337213D02*
X351441D01*
Y332882D01*
X352534D01*
Y328665D01*
X351874D01*
Y324335D01*
X355417D01*
Y328665D01*
X354758D01*
Y332882D01*
X356559D01*
Y337213D01*
D02*
G37*
G36*
X392390Y328847D02*
X386484D01*
Y322941D01*
X392390D01*
Y324288D01*
X395437D01*
X395667Y324058D01*
X396463Y323728D01*
X397324D01*
X398120Y324058D01*
X398729Y324667D01*
X399059Y325463D01*
Y326324D01*
X398729Y327120D01*
X398120Y327729D01*
X397324Y328059D01*
X396463D01*
X395667Y327729D01*
X395437Y327499D01*
X392390D01*
Y328847D01*
D02*
G37*
%LPD*%
G36*
X336272Y365736D02*
X332728D01*
Y367705D01*
X336272Y367705D01*
Y365736D01*
D02*
G37*
G36*
X338240Y360618D02*
X330760D01*
Y365736D01*
X338240D01*
Y360618D01*
D02*
G37*
G36*
Y337390D02*
X330760Y337390D01*
Y342508D01*
X338240D01*
Y337390D01*
D02*
G37*
G36*
X336272Y335421D02*
X332728Y335421D01*
X332728Y337390D01*
X336272D01*
X336272Y335421D01*
D02*
G37*
D15*
X353646Y326500D02*
Y334693D01*
X354000Y335047D01*
X385500Y338689D02*
Y348760D01*
X408000Y357047D02*
X408453Y357500D01*
X442000Y381500D02*
X443000Y380500D01*
X442913Y362559D02*
X443000Y362646D01*
X408000Y362953D02*
X408047Y363000D01*
X414000D01*
X363500Y357500D02*
X368047D01*
X368547Y358000D01*
X428799Y349000D02*
X437240Y357441D01*
X437634D01*
X420000Y349000D02*
X428799D01*
X422354Y357500D02*
X422413Y357441D01*
X396750Y349260D02*
X407287D01*
X407547Y349000D01*
X407693Y356740D02*
X408000Y357047D01*
X407854Y363098D02*
X408000Y362953D01*
X407854Y363098D02*
Y371500D01*
X385717Y357024D02*
X386000Y356740D01*
X385717Y357024D02*
Y372500D01*
X385500Y348760D02*
X386000Y349260D01*
X374354Y349500D02*
X374594Y349260D01*
X386000D01*
X368646Y349500D02*
Y357902D01*
X368547Y358000D02*
X368646Y357902D01*
X368547Y371047D02*
X369000Y371500D01*
D16*
X333713Y365736D02*
G03*
X333713Y365736I-984J0D01*
G01*
X337256D02*
G03*
X337256Y365736I-984J0D01*
G01*
X333713Y337390D02*
G03*
X333713Y337390I-984J0D01*
G01*
X337256D02*
G03*
X337256Y337390I-984J0D01*
G01*
X351356Y343203D02*
Y355356D01*
X352681Y356681D01*
X353606Y340953D02*
X354000D01*
X351356Y343203D02*
X353606Y340953D01*
X389437Y325894D02*
X396894D01*
X355000Y367500D02*
X357953Y364547D01*
X343500Y379000D02*
X355000Y367500D01*
X357953Y361953D02*
Y364547D01*
X413453Y349000D02*
X420000D01*
X393204Y353116D02*
X396634D01*
X391820Y354500D02*
X393204Y353116D01*
X396634D02*
X396750Y353000D01*
X391500Y354500D02*
X391820D01*
X374453Y358000D02*
X380000D01*
X372336Y360511D02*
X374453Y358394D01*
X372336Y360511D02*
Y360561D01*
X370944Y361953D02*
X372336Y360561D01*
X374453Y358000D02*
Y358394D01*
X357953Y361953D02*
X370944D01*
X352681Y356681D02*
X357953Y361953D01*
X345130Y356681D02*
X352681D01*
D17*
X354000Y340953D02*
D03*
Y335047D02*
D03*
X408000Y362953D02*
D03*
Y357047D02*
D03*
D18*
X359354Y326500D02*
D03*
X353646D02*
D03*
D19*
X381563Y325894D02*
D03*
X389437D02*
D03*
D20*
X385500Y338689D02*
D03*
D21*
X443000Y362646D02*
D03*
Y368354D02*
D03*
D22*
X429366Y357441D02*
D03*
Y360000D02*
D03*
Y362559D02*
D03*
X437634D02*
D03*
Y360000D02*
D03*
Y357441D02*
D03*
D23*
X402146Y371500D02*
D03*
X407854D02*
D03*
X416646Y357500D02*
D03*
X422354D02*
D03*
X368646Y349500D02*
D03*
X374354D02*
D03*
D24*
X345130Y356681D02*
D03*
Y354122D02*
D03*
Y351563D02*
D03*
Y349004D02*
D03*
Y346445D02*
D03*
D25*
X334500Y355500D02*
D03*
X334500Y347626D02*
D03*
D26*
X368547Y358000D02*
D03*
X374453D02*
D03*
X407547Y349000D02*
D03*
X413453D02*
D03*
D27*
X386000Y356740D02*
D03*
Y353000D02*
D03*
Y349260D02*
D03*
X396750D02*
D03*
Y353000D02*
D03*
Y356740D02*
D03*
D28*
X385717Y372500D02*
D03*
X393000D02*
D03*
D29*
X345130Y341721D02*
D03*
Y361405D02*
D03*
D30*
X374512Y371500D02*
D03*
D31*
X369000D02*
D03*
D32*
X343500Y379000D02*
D03*
D33*
X333500D02*
D03*
D34*
X396894Y325894D02*
D03*
X414000Y363000D02*
D03*
X355000Y367500D02*
D03*
X363500Y357500D02*
D03*
X420000Y349000D02*
D03*
X391500Y354500D02*
D03*
X380000Y358000D02*
D03*
D35*
X425197Y362205D02*
D03*
Y330709D02*
D03*
X417323Y377953D02*
D03*
X409449Y330709D02*
D03*
X401575Y377953D02*
D03*
X393701Y362205D02*
D03*
X377953D02*
D03*
X370079Y377953D02*
D03*
X362205Y330709D02*
D03*
X354331Y377953D02*
D03*
Y346457D02*
D03*
X346457Y330709D02*
D03*
X330709D02*
D03*
D36*
X442000Y381500D02*
D03*
D37*
X408453Y357500D02*
X416646D01*
X443000Y368354D02*
Y380500D01*
X437634Y362559D02*
X442913D01*
X422413Y357441D02*
X429366D01*
X396750Y356740D02*
X407693D01*
M02*
